<?xml version="1.0" encoding="utf-8" standalone="no"?>
<!DOCTYPE svg PUBLIC "-//W3C//DTD SVG 1.1//EN"
  "http://www.w3.org/Graphics/SVG/1.1/DTD/svg11.dtd">
<!-- Created with matplotlib (https://matplotlib.org/) -->
<svg height="327.850492pt" version="1.1" viewBox="0 0 563.58 327.850492" width="563.58pt" xmlns="http://www.w3.org/2000/svg" xmlns:xlink="http://www.w3.org/1999/xlink">
 <metadata>
  <rdf:RDF xmlns:cc="http://creativecommons.org/ns#" xmlns:dc="http://purl.org/dc/elements/1.1/" xmlns:rdf="http://www.w3.org/1999/02/22-rdf-syntax-ns#">
   <cc:Work>
    <dc:type rdf:resource="http://purl.org/dc/dcmitype/StillImage"/>
    <dc:date>2023-07-07T06:30:44.085221</dc:date>
    <dc:format>image/svg+xml</dc:format>
    <dc:creator>
     <cc:Agent>
      <dc:title>Matplotlib v3.3.4, https://matplotlib.org/</dc:title>
     </cc:Agent>
    </dc:creator>
   </cc:Work>
  </rdf:RDF>
 </metadata>
 <defs>
  <style type="text/css">*{stroke-linecap:butt;stroke-linejoin:round;}</style>
 </defs>
 <g id="figure_1">
  <g id="patch_1">
   <path d="M 0 327.850492 
L 563.58 327.850492 
L 563.58 0 
L 0 0 
z
" style="fill:#ffffff;"/>
  </g>
  <g id="axes_1">
   <g id="patch_2">
    <path d="M 26.7 304.56768 
L 383.82 304.56768 
L 383.82 38.45568 
L 26.7 38.45568 
z
" style="fill:#ffffff;"/>
   </g>
   <g id="matplotlib.axis_1">
    <g id="xtick_1">
     <g id="line2d_1">
      <defs>
       <path d="M 0 0 
L 0 3.5 
" id="mbdae5c4880" style="stroke:#000000;stroke-width:0.8;"/>
      </defs>
      <g>
       <use style="stroke:#000000;stroke-width:0.8;" x="42.932727" xlink:href="#mbdae5c4880" y="304.56768"/>
      </g>
     </g>
     <g id="text_1">
      <!-- 0 -->
      <g transform="translate(40.432727 318.51143)scale(0.1 -0.1)">
       <defs>
        <path d="M 3.609375 32.71875 
Q 3.609375 44.046875 7.03125 52.21875 
Q 10.453125 60.40625 16.109375 64.40625 
Q 20.515625 67.578125 25.203125 67.578125 
Q 32.8125 67.578125 38.875 59.8125 
Q 46.4375 50.203125 46.4375 33.734375 
Q 46.4375 22.21875 43.109375 14.15625 
Q 39.796875 6.109375 34.640625 2.46875 
Q 29.5 -1.171875 24.703125 -1.171875 
Q 15.234375 -1.171875 8.9375 10.015625 
Q 3.609375 19.4375 3.609375 32.71875 
z
M 13.1875 31.5 
Q 13.1875 17.828125 16.546875 9.1875 
Q 19.34375 1.90625 24.859375 1.90625 
Q 27.484375 1.90625 30.3125 4.265625 
Q 33.15625 6.640625 34.625 12.203125 
Q 36.859375 20.609375 36.859375 35.890625 
Q 36.859375 47.21875 34.515625 54.78125 
Q 32.765625 60.40625 29.984375 62.75 
Q 27.984375 64.359375 25.140625 64.359375 
Q 21.828125 64.359375 19.234375 61.375 
Q 15.71875 57.328125 14.453125 48.625 
Q 13.1875 39.9375 13.1875 31.5 
z
" id="TimesNewRomanPSMT-48"/>
       </defs>
       <use xlink:href="#TimesNewRomanPSMT-48"/>
      </g>
     </g>
    </g>
    <g id="xtick_2">
     <g id="line2d_2">
      <g>
       <use style="stroke:#000000;stroke-width:0.8;" x="91.38863" xlink:href="#mbdae5c4880" y="304.56768"/>
      </g>
     </g>
     <g id="text_2">
      <!-- 200 -->
      <g transform="translate(83.88863 318.51143)scale(0.1 -0.1)">
       <defs>
        <path d="M 45.84375 12.75 
L 41.21875 0 
L 2.15625 0 
L 2.15625 1.8125 
Q 19.390625 17.53125 26.421875 27.484375 
Q 33.453125 37.453125 33.453125 45.703125 
Q 33.453125 52 29.59375 56.046875 
Q 25.734375 60.109375 20.359375 60.109375 
Q 15.484375 60.109375 11.59375 57.25 
Q 7.71875 54.390625 5.859375 48.875 
L 4.046875 48.875 
Q 5.28125 57.90625 10.328125 62.734375 
Q 15.375 67.578125 22.953125 67.578125 
Q 31 67.578125 36.390625 62.40625 
Q 41.796875 57.234375 41.796875 50.203125 
Q 41.796875 45.171875 39.453125 40.140625 
Q 35.84375 32.234375 27.734375 23.390625 
Q 15.578125 10.109375 12.546875 7.375 
L 29.828125 7.375 
Q 35.109375 7.375 37.234375 7.765625 
Q 39.359375 8.15625 41.0625 9.34375 
Q 42.78125 10.546875 44.046875 12.75 
z
" id="TimesNewRomanPSMT-50"/>
       </defs>
       <use xlink:href="#TimesNewRomanPSMT-50"/>
       <use x="50" xlink:href="#TimesNewRomanPSMT-48"/>
       <use x="100" xlink:href="#TimesNewRomanPSMT-48"/>
      </g>
     </g>
    </g>
    <g id="xtick_3">
     <g id="line2d_3">
      <g>
       <use style="stroke:#000000;stroke-width:0.8;" x="139.844532" xlink:href="#mbdae5c4880" y="304.56768"/>
      </g>
     </g>
     <g id="text_3">
      <!-- 400 -->
      <g transform="translate(132.344532 318.51143)scale(0.1 -0.1)">
       <defs>
        <path d="M 46.53125 24.421875 
L 46.53125 17.484375 
L 37.640625 17.484375 
L 37.640625 0 
L 29.59375 0 
L 29.59375 17.484375 
L 1.5625 17.484375 
L 1.5625 23.734375 
L 32.28125 67.578125 
L 37.640625 67.578125 
L 37.640625 24.421875 
z
M 29.59375 24.421875 
L 29.59375 57.28125 
L 6.34375 24.421875 
z
" id="TimesNewRomanPSMT-52"/>
       </defs>
       <use xlink:href="#TimesNewRomanPSMT-52"/>
       <use x="50" xlink:href="#TimesNewRomanPSMT-48"/>
       <use x="100" xlink:href="#TimesNewRomanPSMT-48"/>
      </g>
     </g>
    </g>
    <g id="xtick_4">
     <g id="line2d_4">
      <g>
       <use style="stroke:#000000;stroke-width:0.8;" x="188.300434" xlink:href="#mbdae5c4880" y="304.56768"/>
      </g>
     </g>
     <g id="text_4">
      <!-- 600 -->
      <g transform="translate(180.800434 318.51143)scale(0.1 -0.1)">
       <defs>
        <path d="M 44.828125 67.578125 
L 44.828125 65.765625 
Q 38.375 65.140625 34.296875 63.203125 
Q 30.21875 61.28125 26.234375 57.328125 
Q 22.265625 53.375 19.65625 48.515625 
Q 17.046875 43.65625 15.28125 36.96875 
Q 22.3125 41.796875 29.390625 41.796875 
Q 36.1875 41.796875 41.15625 36.328125 
Q 46.140625 30.859375 46.140625 22.265625 
Q 46.140625 13.96875 41.109375 7.125 
Q 35.0625 -1.171875 25.09375 -1.171875 
Q 18.3125 -1.171875 13.578125 3.328125 
Q 4.296875 12.0625 4.296875 25.984375 
Q 4.296875 34.859375 7.859375 42.859375 
Q 11.421875 50.875 18.03125 57.078125 
Q 24.65625 63.28125 30.703125 65.421875 
Q 36.765625 67.578125 42 67.578125 
z
M 14.453125 33.40625 
Q 13.578125 26.8125 13.578125 22.75 
Q 13.578125 18.0625 15.3125 12.5625 
Q 17.046875 7.078125 20.453125 3.859375 
Q 22.953125 1.5625 26.515625 1.5625 
Q 30.765625 1.5625 34.109375 5.5625 
Q 37.453125 9.578125 37.453125 17 
Q 37.453125 25.34375 34.125 31.4375 
Q 30.8125 37.546875 24.703125 37.546875 
Q 22.859375 37.546875 20.734375 36.765625 
Q 18.609375 35.984375 14.453125 33.40625 
z
" id="TimesNewRomanPSMT-54"/>
       </defs>
       <use xlink:href="#TimesNewRomanPSMT-54"/>
       <use x="50" xlink:href="#TimesNewRomanPSMT-48"/>
       <use x="100" xlink:href="#TimesNewRomanPSMT-48"/>
      </g>
     </g>
    </g>
    <g id="xtick_5">
     <g id="line2d_5">
      <g>
       <use style="stroke:#000000;stroke-width:0.8;" x="236.756336" xlink:href="#mbdae5c4880" y="304.56768"/>
      </g>
     </g>
     <g id="text_5">
      <!-- 800 -->
      <g transform="translate(229.256336 318.51143)scale(0.1 -0.1)">
       <defs>
        <path d="M 19.1875 33.34375 
Q 11.328125 39.796875 9.046875 43.703125 
Q 6.78125 47.609375 6.78125 51.8125 
Q 6.78125 58.25 11.765625 62.90625 
Q 16.75 67.578125 25 67.578125 
Q 33.015625 67.578125 37.890625 63.234375 
Q 42.78125 58.890625 42.78125 53.328125 
Q 42.78125 49.609375 40.140625 45.75 
Q 37.5 41.890625 29.15625 36.671875 
Q 37.75 30.03125 40.53125 26.21875 
Q 44.234375 21.234375 44.234375 15.71875 
Q 44.234375 8.734375 38.90625 3.78125 
Q 33.59375 -1.171875 24.953125 -1.171875 
Q 15.53125 -1.171875 10.25 4.734375 
Q 6.0625 9.46875 6.0625 15.09375 
Q 6.0625 19.484375 9.015625 23.796875 
Q 11.96875 28.125 19.1875 33.34375 
z
M 26.859375 38.578125 
Q 32.71875 43.84375 34.28125 46.890625 
Q 35.84375 49.953125 35.84375 53.8125 
Q 35.84375 58.9375 32.953125 61.84375 
Q 30.078125 64.75 25.09375 64.75 
Q 20.125 64.75 17 61.859375 
Q 13.875 58.984375 13.875 55.125 
Q 13.875 52.59375 15.15625 50.046875 
Q 16.453125 47.515625 18.84375 45.21875 
z
M 21.484375 31.5 
Q 17.4375 28.078125 15.484375 24.046875 
Q 13.53125 20.015625 13.53125 15.328125 
Q 13.53125 9.03125 16.96875 5.25 
Q 20.40625 1.46875 25.734375 1.46875 
Q 31 1.46875 34.171875 4.4375 
Q 37.359375 7.421875 37.359375 11.671875 
Q 37.359375 15.1875 35.5 17.96875 
Q 32.03125 23.140625 21.484375 31.5 
z
" id="TimesNewRomanPSMT-56"/>
       </defs>
       <use xlink:href="#TimesNewRomanPSMT-56"/>
       <use x="50" xlink:href="#TimesNewRomanPSMT-48"/>
       <use x="100" xlink:href="#TimesNewRomanPSMT-48"/>
      </g>
     </g>
    </g>
    <g id="xtick_6">
     <g id="line2d_6">
      <g>
       <use style="stroke:#000000;stroke-width:0.8;" x="285.212239" xlink:href="#mbdae5c4880" y="304.56768"/>
      </g>
     </g>
     <g id="text_6">
      <!-- 1000 -->
      <g transform="translate(275.212239 318.51143)scale(0.1 -0.1)">
       <defs>
        <path d="M 11.71875 59.71875 
L 27.828125 67.578125 
L 29.4375 67.578125 
L 29.4375 11.671875 
Q 29.4375 6.109375 29.90625 4.734375 
Q 30.375 3.375 31.828125 2.640625 
Q 33.296875 1.90625 37.796875 1.8125 
L 37.796875 0 
L 12.890625 0 
L 12.890625 1.8125 
Q 17.578125 1.90625 18.9375 2.609375 
Q 20.3125 3.328125 20.84375 4.515625 
Q 21.390625 5.71875 21.390625 11.671875 
L 21.390625 47.40625 
Q 21.390625 54.640625 20.90625 56.6875 
Q 20.5625 58.25 19.65625 58.984375 
Q 18.75 59.71875 17.484375 59.71875 
Q 15.671875 59.71875 12.453125 58.203125 
z
" id="TimesNewRomanPSMT-49"/>
       </defs>
       <use xlink:href="#TimesNewRomanPSMT-49"/>
       <use x="50" xlink:href="#TimesNewRomanPSMT-48"/>
       <use x="100" xlink:href="#TimesNewRomanPSMT-48"/>
       <use x="150" xlink:href="#TimesNewRomanPSMT-48"/>
      </g>
     </g>
    </g>
    <g id="xtick_7">
     <g id="line2d_7">
      <g>
       <use style="stroke:#000000;stroke-width:0.8;" x="333.668141" xlink:href="#mbdae5c4880" y="304.56768"/>
      </g>
     </g>
     <g id="text_7">
      <!-- 1200 -->
      <g transform="translate(323.668141 318.51143)scale(0.1 -0.1)">
       <use xlink:href="#TimesNewRomanPSMT-49"/>
       <use x="50" xlink:href="#TimesNewRomanPSMT-50"/>
       <use x="100" xlink:href="#TimesNewRomanPSMT-48"/>
       <use x="150" xlink:href="#TimesNewRomanPSMT-48"/>
      </g>
     </g>
    </g>
    <g id="xtick_8">
     <g id="line2d_8">
      <g>
       <use style="stroke:#000000;stroke-width:0.8;" x="382.124043" xlink:href="#mbdae5c4880" y="304.56768"/>
      </g>
     </g>
     <g id="text_8">
      <!-- 1400 -->
      <g transform="translate(372.124043 318.51143)scale(0.1 -0.1)">
       <use xlink:href="#TimesNewRomanPSMT-49"/>
       <use x="50" xlink:href="#TimesNewRomanPSMT-52"/>
       <use x="100" xlink:href="#TimesNewRomanPSMT-48"/>
       <use x="150" xlink:href="#TimesNewRomanPSMT-48"/>
      </g>
     </g>
    </g>
   </g>
   <g id="matplotlib.axis_2">
    <g id="ytick_1">
     <g id="line2d_9">
      <defs>
       <path d="M 0 0 
L -3.5 0 
" id="m3803938d4d" style="stroke:#000000;stroke-width:0.8;"/>
      </defs>
      <g>
       <use style="stroke:#000000;stroke-width:0.8;" x="26.7" xlink:href="#m3803938d4d" y="304.56768"/>
      </g>
     </g>
     <g id="text_9">
      <!-- 0.0 -->
      <g transform="translate(7.2 308.039555)scale(0.1 -0.1)">
       <defs>
        <path d="M 12.5 9.46875 
Q 14.796875 9.46875 16.359375 7.875 
Q 17.921875 6.296875 17.921875 4.046875 
Q 17.921875 1.8125 16.328125 0.21875 
Q 14.75 -1.375 12.5 -1.375 
Q 10.25 -1.375 8.65625 0.21875 
Q 7.078125 1.8125 7.078125 4.046875 
Q 7.078125 6.34375 8.65625 7.90625 
Q 10.25 9.46875 12.5 9.46875 
z
" id="TimesNewRomanPSMT-46"/>
       </defs>
       <use xlink:href="#TimesNewRomanPSMT-48"/>
       <use x="50" xlink:href="#TimesNewRomanPSMT-46"/>
       <use x="75" xlink:href="#TimesNewRomanPSMT-48"/>
      </g>
     </g>
    </g>
    <g id="ytick_2">
     <g id="line2d_10">
      <g>
       <use style="stroke:#000000;stroke-width:0.8;" x="26.7" xlink:href="#m3803938d4d" y="251.34528"/>
      </g>
     </g>
     <g id="text_10">
      <!-- 0.2 -->
      <g transform="translate(7.2 254.817155)scale(0.1 -0.1)">
       <use xlink:href="#TimesNewRomanPSMT-48"/>
       <use x="50" xlink:href="#TimesNewRomanPSMT-46"/>
       <use x="75" xlink:href="#TimesNewRomanPSMT-50"/>
      </g>
     </g>
    </g>
    <g id="ytick_3">
     <g id="line2d_11">
      <g>
       <use style="stroke:#000000;stroke-width:0.8;" x="26.7" xlink:href="#m3803938d4d" y="198.12288"/>
      </g>
     </g>
     <g id="text_11">
      <!-- 0.4 -->
      <g transform="translate(7.2 201.594755)scale(0.1 -0.1)">
       <use xlink:href="#TimesNewRomanPSMT-48"/>
       <use x="50" xlink:href="#TimesNewRomanPSMT-46"/>
       <use x="75" xlink:href="#TimesNewRomanPSMT-52"/>
      </g>
     </g>
    </g>
    <g id="ytick_4">
     <g id="line2d_12">
      <g>
       <use style="stroke:#000000;stroke-width:0.8;" x="26.7" xlink:href="#m3803938d4d" y="144.90048"/>
      </g>
     </g>
     <g id="text_12">
      <!-- 0.6 -->
      <g transform="translate(7.2 148.372355)scale(0.1 -0.1)">
       <use xlink:href="#TimesNewRomanPSMT-48"/>
       <use x="50" xlink:href="#TimesNewRomanPSMT-46"/>
       <use x="75" xlink:href="#TimesNewRomanPSMT-54"/>
      </g>
     </g>
    </g>
    <g id="ytick_5">
     <g id="line2d_13">
      <g>
       <use style="stroke:#000000;stroke-width:0.8;" x="26.7" xlink:href="#m3803938d4d" y="91.67808"/>
      </g>
     </g>
     <g id="text_13">
      <!-- 0.8 -->
      <g transform="translate(7.2 95.149955)scale(0.1 -0.1)">
       <use xlink:href="#TimesNewRomanPSMT-48"/>
       <use x="50" xlink:href="#TimesNewRomanPSMT-46"/>
       <use x="75" xlink:href="#TimesNewRomanPSMT-56"/>
      </g>
     </g>
    </g>
    <g id="ytick_6">
     <g id="line2d_14">
      <g>
       <use style="stroke:#000000;stroke-width:0.8;" x="26.7" xlink:href="#m3803938d4d" y="38.45568"/>
      </g>
     </g>
     <g id="text_14">
      <!-- 1.0 -->
      <g transform="translate(7.2 41.927555)scale(0.1 -0.1)">
       <use xlink:href="#TimesNewRomanPSMT-49"/>
       <use x="50" xlink:href="#TimesNewRomanPSMT-46"/>
       <use x="75" xlink:href="#TimesNewRomanPSMT-48"/>
      </g>
     </g>
    </g>
   </g>
   <g id="patch_3">
    <path d="M 26.7 304.56768 
L 26.7 38.45568 
" style="fill:none;stroke:#000000;stroke-linecap:square;stroke-linejoin:miter;stroke-width:0.8;"/>
   </g>
   <g id="patch_4">
    <path d="M 383.82 304.56768 
L 383.82 38.45568 
" style="fill:none;stroke:#000000;stroke-linecap:square;stroke-linejoin:miter;stroke-width:0.8;"/>
   </g>
   <g id="patch_5">
    <path d="M 26.7 304.56768 
L 383.82 304.56768 
" style="fill:none;stroke:#000000;stroke-linecap:square;stroke-linejoin:miter;stroke-width:0.8;"/>
   </g>
   <g id="patch_6">
    <path d="M 26.7 38.45568 
L 383.82 38.45568 
" style="fill:none;stroke:#000000;stroke-linecap:square;stroke-linejoin:miter;stroke-width:0.8;"/>
   </g>
  </g>
  <g id="axes_2">
   <g id="PathCollection_1">
    <defs>
     <path d="M 0 1.118034 
C 0.296506 1.118034 0.580908 1.000231 0.790569 0.790569 
C 1.000231 0.580908 1.118034 0.296506 1.118034 0 
C 1.118034 -0.296506 1.000231 -0.580908 0.790569 -0.790569 
C 0.580908 -1.000231 0.296506 -1.118034 0 -1.118034 
C -0.296506 -1.118034 -0.580908 -1.000231 -0.790569 -0.790569 
C -1.000231 -0.580908 -1.118034 -0.296506 -1.118034 0 
C -1.118034 0.296506 -1.000231 0.580908 -0.790569 0.790569 
C -0.580908 1.000231 -0.296506 1.118034 0 1.118034 
z
" id="m411cdf33fa" style="stroke:#d55e00;stroke-opacity:0.1;"/>
    </defs>
    <g clip-path="url(#p2d1a788913)">
     <use style="fill:#d55e00;fill-opacity:0.1;stroke:#d55e00;stroke-opacity:0.1;" x="42.932727" xlink:href="#m411cdf33fa" y="292.164262"/>
     <use style="fill:#d55e00;fill-opacity:0.1;stroke:#d55e00;stroke-opacity:0.1;" x="55.046703" xlink:href="#m411cdf33fa" y="114.637707"/>
     <use style="fill:#d55e00;fill-opacity:0.1;stroke:#d55e00;stroke-opacity:0.1;" x="67.160678" xlink:href="#m411cdf33fa" y="56.797702"/>
     <use style="fill:#d55e00;fill-opacity:0.1;stroke:#d55e00;stroke-opacity:0.1;" x="79.274654" xlink:href="#m411cdf33fa" y="136.059901"/>
     <use style="fill:#d55e00;fill-opacity:0.1;stroke:#d55e00;stroke-opacity:0.1;" x="91.38863" xlink:href="#m411cdf33fa" y="114.722403"/>
     <use style="fill:#d55e00;fill-opacity:0.1;stroke:#d55e00;stroke-opacity:0.1;" x="103.502605" xlink:href="#m411cdf33fa" y="159.745636"/>
     <use style="fill:#d55e00;fill-opacity:0.1;stroke:#d55e00;stroke-opacity:0.1;" x="115.616581" xlink:href="#m411cdf33fa" y="157.20387"/>
     <use style="fill:#d55e00;fill-opacity:0.1;stroke:#d55e00;stroke-opacity:0.1;" x="127.730556" xlink:href="#m411cdf33fa" y="246.834862"/>
     <use style="fill:#d55e00;fill-opacity:0.1;stroke:#d55e00;stroke-opacity:0.1;" x="139.844532" xlink:href="#m411cdf33fa" y="78.723397"/>
     <use style="fill:#d55e00;fill-opacity:0.1;stroke:#d55e00;stroke-opacity:0.1;" x="151.958507" xlink:href="#m411cdf33fa" y="239.024195"/>
     <use style="fill:#d55e00;fill-opacity:0.1;stroke:#d55e00;stroke-opacity:0.1;" x="164.072483" xlink:href="#m411cdf33fa" y="200.274662"/>
     <use style="fill:#d55e00;fill-opacity:0.1;stroke:#d55e00;stroke-opacity:0.1;" x="176.186459" xlink:href="#m411cdf33fa" y="215.638786"/>
     <use style="fill:#d55e00;fill-opacity:0.1;stroke:#d55e00;stroke-opacity:0.1;" x="188.300434" xlink:href="#m411cdf33fa" y="281.224489"/>
     <use style="fill:#d55e00;fill-opacity:0.1;stroke:#d55e00;stroke-opacity:0.1;" x="200.41441" xlink:href="#m411cdf33fa" y="206.462879"/>
     <use style="fill:#d55e00;fill-opacity:0.1;stroke:#d55e00;stroke-opacity:0.1;" x="212.528385" xlink:href="#m411cdf33fa" y="261.31159"/>
     <use style="fill:#d55e00;fill-opacity:0.1;stroke:#d55e00;stroke-opacity:0.1;" x="224.642361" xlink:href="#m411cdf33fa" y="236.132602"/>
     <use style="fill:#d55e00;fill-opacity:0.1;stroke:#d55e00;stroke-opacity:0.1;" x="236.756336" xlink:href="#m411cdf33fa" y="213.11249"/>
     <use style="fill:#d55e00;fill-opacity:0.1;stroke:#d55e00;stroke-opacity:0.1;" x="240.390529" xlink:href="#m411cdf33fa" y="261.810145"/>
     <use style="fill:#d55e00;fill-opacity:0.1;stroke:#d55e00;stroke-opacity:0.1;" x="244.024722" xlink:href="#m411cdf33fa" y="264.720363"/>
     <use style="fill:#d55e00;fill-opacity:0.1;stroke:#d55e00;stroke-opacity:0.1;" x="247.658915" xlink:href="#m411cdf33fa" y="285.80741"/>
     <use style="fill:#d55e00;fill-opacity:0.1;stroke:#d55e00;stroke-opacity:0.1;" x="251.293107" xlink:href="#m411cdf33fa" y="230.551992"/>
     <use style="fill:#d55e00;fill-opacity:0.1;stroke:#d55e00;stroke-opacity:0.1;" x="254.9273" xlink:href="#m411cdf33fa" y="291.780933"/>
     <use style="fill:#d55e00;fill-opacity:0.1;stroke:#d55e00;stroke-opacity:0.1;" x="258.561493" xlink:href="#m411cdf33fa" y="251.385042"/>
     <use style="fill:#d55e00;fill-opacity:0.1;stroke:#d55e00;stroke-opacity:0.1;" x="262.195685" xlink:href="#m411cdf33fa" y="265.053787"/>
     <use style="fill:#d55e00;fill-opacity:0.1;stroke:#d55e00;stroke-opacity:0.1;" x="265.829878" xlink:href="#m411cdf33fa" y="252.334322"/>
     <use style="fill:#d55e00;fill-opacity:0.1;stroke:#d55e00;stroke-opacity:0.1;" x="269.464071" xlink:href="#m411cdf33fa" y="268.139796"/>
     <use style="fill:#d55e00;fill-opacity:0.1;stroke:#d55e00;stroke-opacity:0.1;" x="273.098263" xlink:href="#m411cdf33fa" y="287.295894"/>
     <use style="fill:#d55e00;fill-opacity:0.1;stroke:#d55e00;stroke-opacity:0.1;" x="276.732456" xlink:href="#m411cdf33fa" y="251.262629"/>
     <use style="fill:#d55e00;fill-opacity:0.1;stroke:#d55e00;stroke-opacity:0.1;" x="280.366649" xlink:href="#m411cdf33fa" y="279.831035"/>
     <use style="fill:#d55e00;fill-opacity:0.1;stroke:#d55e00;stroke-opacity:0.1;" x="284.000841" xlink:href="#m411cdf33fa" y="292.47168"/>
     <use style="fill:#d55e00;fill-opacity:0.1;stroke:#d55e00;stroke-opacity:0.1;" x="287.635034" xlink:href="#m411cdf33fa" y="274.209617"/>
     <use style="fill:#d55e00;fill-opacity:0.1;stroke:#d55e00;stroke-opacity:0.1;" x="291.269227" xlink:href="#m411cdf33fa" y="238.194902"/>
     <use style="fill:#d55e00;fill-opacity:0.1;stroke:#d55e00;stroke-opacity:0.1;" x="294.903419" xlink:href="#m411cdf33fa" y="235.948025"/>
     <use style="fill:#d55e00;fill-opacity:0.1;stroke:#d55e00;stroke-opacity:0.1;" x="298.537612" xlink:href="#m411cdf33fa" y="283.010811"/>
     <use style="fill:#d55e00;fill-opacity:0.1;stroke:#d55e00;stroke-opacity:0.1;" x="302.171805" xlink:href="#m411cdf33fa" y="277.825795"/>
     <use style="fill:#d55e00;fill-opacity:0.1;stroke:#d55e00;stroke-opacity:0.1;" x="305.805997" xlink:href="#m411cdf33fa" y="232.946666"/>
     <use style="fill:#d55e00;fill-opacity:0.1;stroke:#d55e00;stroke-opacity:0.1;" x="307.017395" xlink:href="#m411cdf33fa" y="268.491055"/>
     <use style="fill:#d55e00;fill-opacity:0.1;stroke:#d55e00;stroke-opacity:0.1;" x="309.44019" xlink:href="#m411cdf33fa" y="274.447878"/>
     <use style="fill:#d55e00;fill-opacity:0.1;stroke:#d55e00;stroke-opacity:0.1;" x="310.651588" xlink:href="#m411cdf33fa" y="273.278477"/>
     <use style="fill:#d55e00;fill-opacity:0.1;stroke:#d55e00;stroke-opacity:0.1;" x="313.074383" xlink:href="#m411cdf33fa" y="243.985096"/>
     <use style="fill:#d55e00;fill-opacity:0.1;stroke:#d55e00;stroke-opacity:0.1;" x="314.28578" xlink:href="#m411cdf33fa" y="261.896202"/>
     <use style="fill:#d55e00;fill-opacity:0.1;stroke:#d55e00;stroke-opacity:0.1;" x="316.708575" xlink:href="#m411cdf33fa" y="262.581968"/>
     <use style="fill:#d55e00;fill-opacity:0.1;stroke:#d55e00;stroke-opacity:0.1;" x="317.919973" xlink:href="#m411cdf33fa" y="290.464951"/>
     <use style="fill:#d55e00;fill-opacity:0.1;stroke:#d55e00;stroke-opacity:0.1;" x="320.342768" xlink:href="#m411cdf33fa" y="188.907566"/>
     <use style="fill:#d55e00;fill-opacity:0.1;stroke:#d55e00;stroke-opacity:0.1;" x="321.554166" xlink:href="#m411cdf33fa" y="282.467582"/>
     <use style="fill:#d55e00;fill-opacity:0.1;stroke:#d55e00;stroke-opacity:0.1;" x="323.976961" xlink:href="#m411cdf33fa" y="280.261994"/>
     <use style="fill:#d55e00;fill-opacity:0.1;stroke:#d55e00;stroke-opacity:0.1;" x="327.611153" xlink:href="#m411cdf33fa" y="283.206987"/>
     <use style="fill:#d55e00;fill-opacity:0.1;stroke:#d55e00;stroke-opacity:0.1;" x="331.245346" xlink:href="#m411cdf33fa" y="290.764189"/>
     <use style="fill:#d55e00;fill-opacity:0.1;stroke:#d55e00;stroke-opacity:0.1;" x="334.879539" xlink:href="#m411cdf33fa" y="269.5115"/>
     <use style="fill:#d55e00;fill-opacity:0.1;stroke:#d55e00;stroke-opacity:0.1;" x="338.513731" xlink:href="#m411cdf33fa" y="278.265038"/>
     <use style="fill:#d55e00;fill-opacity:0.1;stroke:#d55e00;stroke-opacity:0.1;" x="342.147924" xlink:href="#m411cdf33fa" y="290.552723"/>
     <use style="fill:#d55e00;fill-opacity:0.1;stroke:#d55e00;stroke-opacity:0.1;" x="345.782117" xlink:href="#m411cdf33fa" y="261.890578"/>
     <use style="fill:#d55e00;fill-opacity:0.1;stroke:#d55e00;stroke-opacity:0.1;" x="349.416309" xlink:href="#m411cdf33fa" y="265.284986"/>
     <use style="fill:#d55e00;fill-opacity:0.1;stroke:#d55e00;stroke-opacity:0.1;" x="353.050502" xlink:href="#m411cdf33fa" y="207.563622"/>
     <use style="fill:#d55e00;fill-opacity:0.1;stroke:#d55e00;stroke-opacity:0.1;" x="356.684695" xlink:href="#m411cdf33fa" y="200.140748"/>
     <use style="fill:#d55e00;fill-opacity:0.1;stroke:#d55e00;stroke-opacity:0.1;" x="360.318887" xlink:href="#m411cdf33fa" y="279.503583"/>
     <use style="fill:#d55e00;fill-opacity:0.1;stroke:#d55e00;stroke-opacity:0.1;" x="363.95308" xlink:href="#m411cdf33fa" y="261.414593"/>
     <use style="fill:#d55e00;fill-opacity:0.1;stroke:#d55e00;stroke-opacity:0.1;" x="367.587273" xlink:href="#m411cdf33fa" y="277.937114"/>
    </g>
   </g>
   <g id="PathCollection_2">
    <defs>
     <path d="M 0 1.118034 
C 0.296506 1.118034 0.580908 1.000231 0.790569 0.790569 
C 1.000231 0.580908 1.118034 0.296506 1.118034 0 
C 1.118034 -0.296506 1.000231 -0.580908 0.790569 -0.790569 
C 0.580908 -1.000231 0.296506 -1.118034 0 -1.118034 
C -0.296506 -1.118034 -0.580908 -1.000231 -0.790569 -0.790569 
C -1.000231 -0.580908 -1.118034 -0.296506 -1.118034 0 
C -1.118034 0.296506 -1.000231 0.580908 -0.790569 0.790569 
C -0.580908 1.000231 -0.296506 1.118034 0 1.118034 
z
" id="mc396a7e580" style="stroke:#d55e00;"/>
    </defs>
    <g clip-path="url(#p2d1a788913)">
     <use style="fill:#d55e00;stroke:#d55e00;" x="155.47156" xlink:href="#mc396a7e580" y="201.120468"/>
     <use style="fill:#d55e00;stroke:#d55e00;" x="165.889579" xlink:href="#mc396a7e580" y="198.039854"/>
     <use style="fill:#d55e00;stroke:#d55e00;" x="175.883609" xlink:href="#mc396a7e580" y="206.897015"/>
     <use style="fill:#d55e00;stroke:#d55e00;" x="185.45365" xlink:href="#mc396a7e580" y="216.626382"/>
     <use style="fill:#d55e00;stroke:#d55e00;" x="194.599701" xlink:href="#mc396a7e580" y="223.076077"/>
     <use style="fill:#d55e00;stroke:#d55e00;" x="203.321764" xlink:href="#mc396a7e580" y="229.956673"/>
     <use style="fill:#d55e00;stroke:#d55e00;" x="211.619837" xlink:href="#mc396a7e580" y="235.376381"/>
     <use style="fill:#d55e00;stroke:#d55e00;" x="219.493921" xlink:href="#mc396a7e580" y="241.880982"/>
     <use style="fill:#d55e00;stroke:#d55e00;" x="226.944016" xlink:href="#mc396a7e580" y="242.10237"/>
     <use style="fill:#d55e00;stroke:#d55e00;" x="233.970122" xlink:href="#mc396a7e580" y="252.157752"/>
     <use style="fill:#d55e00;stroke:#d55e00;" x="240.572239" xlink:href="#mc396a7e580" y="254.830126"/>
     <use style="fill:#d55e00;stroke:#d55e00;" x="246.750366" xlink:href="#mc396a7e580" y="258.526874"/>
     <use style="fill:#d55e00;stroke:#d55e00;" x="252.504505" xlink:href="#mc396a7e580" y="259.65468"/>
     <use style="fill:#d55e00;stroke:#d55e00;" x="257.834654" xlink:href="#mc396a7e580" y="257.390857"/>
     <use style="fill:#d55e00;stroke:#d55e00;" x="262.740814" xlink:href="#mc396a7e580" y="261.218253"/>
     <use style="fill:#d55e00;stroke:#d55e00;" x="267.222985" xlink:href="#mc396a7e580" y="262.043964"/>
     <use style="fill:#d55e00;stroke:#d55e00;" x="271.281167" xlink:href="#mc396a7e580" y="261.884667"/>
     <use style="fill:#d55e00;stroke:#d55e00;" x="274.79422" xlink:href="#mc396a7e580" y="264.653595"/>
     <use style="fill:#d55e00;stroke:#d55e00;" x="278.246703" xlink:href="#mc396a7e580" y="265.285482"/>
     <use style="fill:#d55e00;stroke:#d55e00;" x="281.578046" xlink:href="#mc396a7e580" y="265.713387"/>
     <use style="fill:#d55e00;stroke:#d55e00;" x="284.84882" xlink:href="#mc396a7e580" y="263.622272"/>
     <use style="fill:#d55e00;stroke:#d55e00;" x="287.998453" xlink:href="#mc396a7e580" y="265.189482"/>
     <use style="fill:#d55e00;stroke:#d55e00;" x="291.087517" xlink:href="#mc396a7e580" y="263.729534"/>
     <use style="fill:#d55e00;stroke:#d55e00;" x="294.055441" xlink:href="#mc396a7e580" y="265.683529"/>
     <use style="fill:#d55e00;stroke:#d55e00;" x="296.962795" xlink:href="#mc396a7e580" y="261.876218"/>
     <use style="fill:#d55e00;stroke:#d55e00;" x="299.749009" xlink:href="#mc396a7e580" y="263.382881"/>
     <use style="fill:#d55e00;stroke:#d55e00;" x="302.474654" xlink:href="#mc396a7e580" y="263.988991"/>
     <use style="fill:#d55e00;stroke:#d55e00;" x="305.200299" xlink:href="#mc396a7e580" y="263.784546"/>
     <use style="fill:#d55e00;stroke:#d55e00;" x="307.925943" xlink:href="#mc396a7e580" y="265.759624"/>
     <use style="fill:#d55e00;stroke:#d55e00;" x="310.651588" xlink:href="#mc396a7e580" y="265.243647"/>
     <use style="fill:#d55e00;stroke:#d55e00;" x="313.377232" xlink:href="#mc396a7e580" y="264.533315"/>
     <use style="fill:#d55e00;stroke:#d55e00;" x="316.102877" xlink:href="#mc396a7e580" y="265.35047"/>
     <use style="fill:#d55e00;stroke:#d55e00;" x="318.828521" xlink:href="#mc396a7e580" y="266.535254"/>
     <use style="fill:#d55e00;stroke:#d55e00;" x="321.554166" xlink:href="#mc396a7e580" y="268.002102"/>
     <use style="fill:#d55e00;stroke:#d55e00;" x="324.27981" xlink:href="#mc396a7e580" y="264.229743"/>
     <use style="fill:#d55e00;stroke:#d55e00;" x="327.005455" xlink:href="#mc396a7e580" y="260.34549"/>
     <use style="fill:#d55e00;stroke:#d55e00;" x="329.731099" xlink:href="#mc396a7e580" y="262.673336"/>
     <use style="fill:#d55e00;stroke:#d55e00;" x="332.577883" xlink:href="#mc396a7e580" y="262.319513"/>
     <use style="fill:#d55e00;stroke:#d55e00;" x="335.485237" xlink:href="#mc396a7e580" y="262.493975"/>
    </g>
   </g>
   <g id="PathCollection_3">
    <defs>
     <path d="M 0 1.118034 
C 0.296506 1.118034 0.580908 1.000231 0.790569 0.790569 
C 1.000231 0.580908 1.118034 0.296506 1.118034 0 
C 1.118034 -0.296506 1.000231 -0.580908 0.790569 -0.790569 
C 0.580908 -1.000231 0.296506 -1.118034 0 -1.118034 
C -0.296506 -1.118034 -0.580908 -1.000231 -0.790569 -0.790569 
C -1.000231 -0.580908 -1.118034 -0.296506 -1.118034 0 
C -1.118034 0.296506 -1.000231 0.580908 -0.790569 0.790569 
C -0.580908 1.000231 -0.296506 1.118034 0 1.118034 
z
" id="mecd44f23d7" style="stroke:#f0e442;stroke-opacity:0.1;"/>
    </defs>
    <g clip-path="url(#p2d1a788913)">
     <use style="fill:#f0e442;fill-opacity:0.1;stroke:#f0e442;stroke-opacity:0.1;" x="42.932727" xlink:href="#mecd44f23d7" y="232.840897"/>
     <use style="fill:#f0e442;fill-opacity:0.1;stroke:#f0e442;stroke-opacity:0.1;" x="55.046703" xlink:href="#mecd44f23d7" y="84.215305"/>
     <use style="fill:#f0e442;fill-opacity:0.1;stroke:#f0e442;stroke-opacity:0.1;" x="67.160678" xlink:href="#mecd44f23d7" y="247.885497"/>
     <use style="fill:#f0e442;fill-opacity:0.1;stroke:#f0e442;stroke-opacity:0.1;" x="79.274654" xlink:href="#mecd44f23d7" y="172.870535"/>
     <use style="fill:#f0e442;fill-opacity:0.1;stroke:#f0e442;stroke-opacity:0.1;" x="91.38863" xlink:href="#mecd44f23d7" y="189.506815"/>
     <use style="fill:#f0e442;fill-opacity:0.1;stroke:#f0e442;stroke-opacity:0.1;" x="103.502605" xlink:href="#mecd44f23d7" y="204.306213"/>
     <use style="fill:#f0e442;fill-opacity:0.1;stroke:#f0e442;stroke-opacity:0.1;" x="115.616581" xlink:href="#mecd44f23d7" y="197.086644"/>
     <use style="fill:#f0e442;fill-opacity:0.1;stroke:#f0e442;stroke-opacity:0.1;" x="127.730556" xlink:href="#mecd44f23d7" y="290.322441"/>
     <use style="fill:#f0e442;fill-opacity:0.1;stroke:#f0e442;stroke-opacity:0.1;" x="139.844532" xlink:href="#mecd44f23d7" y="77.830878"/>
     <use style="fill:#f0e442;fill-opacity:0.1;stroke:#f0e442;stroke-opacity:0.1;" x="151.958507" xlink:href="#mecd44f23d7" y="104.239819"/>
     <use style="fill:#f0e442;fill-opacity:0.1;stroke:#f0e442;stroke-opacity:0.1;" x="164.072483" xlink:href="#mecd44f23d7" y="254.909153"/>
     <use style="fill:#f0e442;fill-opacity:0.1;stroke:#f0e442;stroke-opacity:0.1;" x="176.186459" xlink:href="#mecd44f23d7" y="177.332137"/>
     <use style="fill:#f0e442;fill-opacity:0.1;stroke:#f0e442;stroke-opacity:0.1;" x="188.300434" xlink:href="#mecd44f23d7" y="103.09325"/>
     <use style="fill:#f0e442;fill-opacity:0.1;stroke:#f0e442;stroke-opacity:0.1;" x="200.41441" xlink:href="#mecd44f23d7" y="90.644207"/>
     <use style="fill:#f0e442;fill-opacity:0.1;stroke:#f0e442;stroke-opacity:0.1;" x="212.528385" xlink:href="#mecd44f23d7" y="73.404963"/>
     <use style="fill:#f0e442;fill-opacity:0.1;stroke:#f0e442;stroke-opacity:0.1;" x="224.642361" xlink:href="#mecd44f23d7" y="145.274369"/>
     <use style="fill:#f0e442;fill-opacity:0.1;stroke:#f0e442;stroke-opacity:0.1;" x="236.756336" xlink:href="#mecd44f23d7" y="205.497994"/>
     <use style="fill:#f0e442;fill-opacity:0.1;stroke:#f0e442;stroke-opacity:0.1;" x="240.390529" xlink:href="#mecd44f23d7" y="54.071139"/>
     <use style="fill:#f0e442;fill-opacity:0.1;stroke:#f0e442;stroke-opacity:0.1;" x="244.024722" xlink:href="#mecd44f23d7" y="86.312009"/>
     <use style="fill:#f0e442;fill-opacity:0.1;stroke:#f0e442;stroke-opacity:0.1;" x="247.658915" xlink:href="#mecd44f23d7" y="50.55168"/>
     <use style="fill:#f0e442;fill-opacity:0.1;stroke:#f0e442;stroke-opacity:0.1;" x="251.293107" xlink:href="#mecd44f23d7" y="84.669722"/>
     <use style="fill:#f0e442;fill-opacity:0.1;stroke:#f0e442;stroke-opacity:0.1;" x="254.9273" xlink:href="#mecd44f23d7" y="58.905226"/>
     <use style="fill:#f0e442;fill-opacity:0.1;stroke:#f0e442;stroke-opacity:0.1;" x="258.561493" xlink:href="#mecd44f23d7" y="186.425632"/>
     <use style="fill:#f0e442;fill-opacity:0.1;stroke:#f0e442;stroke-opacity:0.1;" x="262.195685" xlink:href="#mecd44f23d7" y="126.551394"/>
     <use style="fill:#f0e442;fill-opacity:0.1;stroke:#f0e442;stroke-opacity:0.1;" x="265.829878" xlink:href="#mecd44f23d7" y="59.292314"/>
     <use style="fill:#f0e442;fill-opacity:0.1;stroke:#f0e442;stroke-opacity:0.1;" x="269.464071" xlink:href="#mecd44f23d7" y="191.571354"/>
     <use style="fill:#f0e442;fill-opacity:0.1;stroke:#f0e442;stroke-opacity:0.1;" x="273.098263" xlink:href="#mecd44f23d7" y="274.527397"/>
     <use style="fill:#f0e442;fill-opacity:0.1;stroke:#f0e442;stroke-opacity:0.1;" x="276.732456" xlink:href="#mecd44f23d7" y="263.156197"/>
     <use style="fill:#f0e442;fill-opacity:0.1;stroke:#f0e442;stroke-opacity:0.1;" x="280.366649" xlink:href="#mecd44f23d7" y="125.409605"/>
     <use style="fill:#f0e442;fill-opacity:0.1;stroke:#f0e442;stroke-opacity:0.1;" x="284.000841" xlink:href="#mecd44f23d7" y="105.183059"/>
     <use style="fill:#f0e442;fill-opacity:0.1;stroke:#f0e442;stroke-opacity:0.1;" x="287.635034" xlink:href="#mecd44f23d7" y="291.363276"/>
     <use style="fill:#f0e442;fill-opacity:0.1;stroke:#f0e442;stroke-opacity:0.1;" x="291.269227" xlink:href="#mecd44f23d7" y="240.060683"/>
     <use style="fill:#f0e442;fill-opacity:0.1;stroke:#f0e442;stroke-opacity:0.1;" x="294.903419" xlink:href="#mecd44f23d7" y="224.887227"/>
     <use style="fill:#f0e442;fill-opacity:0.1;stroke:#f0e442;stroke-opacity:0.1;" x="298.537612" xlink:href="#mecd44f23d7" y="268.954437"/>
     <use style="fill:#f0e442;fill-opacity:0.1;stroke:#f0e442;stroke-opacity:0.1;" x="302.171805" xlink:href="#mecd44f23d7" y="276.775476"/>
     <use style="fill:#f0e442;fill-opacity:0.1;stroke:#f0e442;stroke-opacity:0.1;" x="305.805997" xlink:href="#mecd44f23d7" y="284.848559"/>
     <use style="fill:#f0e442;fill-opacity:0.1;stroke:#f0e442;stroke-opacity:0.1;" x="307.017395" xlink:href="#mecd44f23d7" y="156.204491"/>
     <use style="fill:#f0e442;fill-opacity:0.1;stroke:#f0e442;stroke-opacity:0.1;" x="309.44019" xlink:href="#mecd44f23d7" y="88.476882"/>
     <use style="fill:#f0e442;fill-opacity:0.1;stroke:#f0e442;stroke-opacity:0.1;" x="310.651588" xlink:href="#mecd44f23d7" y="235.02375"/>
     <use style="fill:#f0e442;fill-opacity:0.1;stroke:#f0e442;stroke-opacity:0.1;" x="313.074383" xlink:href="#mecd44f23d7" y="248.796109"/>
     <use style="fill:#f0e442;fill-opacity:0.1;stroke:#f0e442;stroke-opacity:0.1;" x="314.28578" xlink:href="#mecd44f23d7" y="120.702737"/>
     <use style="fill:#f0e442;fill-opacity:0.1;stroke:#f0e442;stroke-opacity:0.1;" x="316.708575" xlink:href="#mecd44f23d7" y="245.342465"/>
     <use style="fill:#f0e442;fill-opacity:0.1;stroke:#f0e442;stroke-opacity:0.1;" x="317.919973" xlink:href="#mecd44f23d7" y="165.94295"/>
     <use style="fill:#f0e442;fill-opacity:0.1;stroke:#f0e442;stroke-opacity:0.1;" x="320.342768" xlink:href="#mecd44f23d7" y="283.148644"/>
     <use style="fill:#f0e442;fill-opacity:0.1;stroke:#f0e442;stroke-opacity:0.1;" x="321.554166" xlink:href="#mecd44f23d7" y="201.468433"/>
     <use style="fill:#f0e442;fill-opacity:0.1;stroke:#f0e442;stroke-opacity:0.1;" x="323.976961" xlink:href="#mecd44f23d7" y="285.892812"/>
     <use style="fill:#f0e442;fill-opacity:0.1;stroke:#f0e442;stroke-opacity:0.1;" x="327.611153" xlink:href="#mecd44f23d7" y="286.27035"/>
     <use style="fill:#f0e442;fill-opacity:0.1;stroke:#f0e442;stroke-opacity:0.1;" x="331.245346" xlink:href="#mecd44f23d7" y="188.439998"/>
     <use style="fill:#f0e442;fill-opacity:0.1;stroke:#f0e442;stroke-opacity:0.1;" x="334.879539" xlink:href="#mecd44f23d7" y="280.505409"/>
     <use style="fill:#f0e442;fill-opacity:0.1;stroke:#f0e442;stroke-opacity:0.1;" x="338.513731" xlink:href="#mecd44f23d7" y="88.181589"/>
     <use style="fill:#f0e442;fill-opacity:0.1;stroke:#f0e442;stroke-opacity:0.1;" x="342.147924" xlink:href="#mecd44f23d7" y="80.433813"/>
     <use style="fill:#f0e442;fill-opacity:0.1;stroke:#f0e442;stroke-opacity:0.1;" x="345.782117" xlink:href="#mecd44f23d7" y="244.394204"/>
     <use style="fill:#f0e442;fill-opacity:0.1;stroke:#f0e442;stroke-opacity:0.1;" x="349.416309" xlink:href="#mecd44f23d7" y="263.385819"/>
     <use style="fill:#f0e442;fill-opacity:0.1;stroke:#f0e442;stroke-opacity:0.1;" x="353.050502" xlink:href="#mecd44f23d7" y="270.495251"/>
     <use style="fill:#f0e442;fill-opacity:0.1;stroke:#f0e442;stroke-opacity:0.1;" x="356.684695" xlink:href="#mecd44f23d7" y="245.197115"/>
     <use style="fill:#f0e442;fill-opacity:0.1;stroke:#f0e442;stroke-opacity:0.1;" x="360.318887" xlink:href="#mecd44f23d7" y="262.556186"/>
     <use style="fill:#f0e442;fill-opacity:0.1;stroke:#f0e442;stroke-opacity:0.1;" x="363.95308" xlink:href="#mecd44f23d7" y="259.679488"/>
     <use style="fill:#f0e442;fill-opacity:0.1;stroke:#f0e442;stroke-opacity:0.1;" x="367.587273" xlink:href="#mecd44f23d7" y="164.369558"/>
    </g>
   </g>
   <g id="PathCollection_4">
    <defs>
     <path d="M 0 1.118034 
C 0.296506 1.118034 0.580908 1.000231 0.790569 0.790569 
C 1.000231 0.580908 1.118034 0.296506 1.118034 0 
C 1.118034 -0.296506 1.000231 -0.580908 0.790569 -0.790569 
C 0.580908 -1.000231 0.296506 -1.118034 0 -1.118034 
C -0.296506 -1.118034 -0.580908 -1.000231 -0.790569 -0.790569 
C -1.000231 -0.580908 -1.118034 -0.296506 -1.118034 0 
C -1.118034 0.296506 -1.000231 0.580908 -0.790569 0.790569 
C -0.580908 1.000231 -0.296506 1.118034 0 1.118034 
z
" id="m6c86e2db5c" style="stroke:#f0e442;"/>
    </defs>
    <g clip-path="url(#p2d1a788913)">
     <use style="fill:#f0e442;stroke:#f0e442;" x="155.47156" xlink:href="#m6c86e2db5c" y="152.109797"/>
     <use style="fill:#f0e442;stroke:#f0e442;" x="165.889579" xlink:href="#m6c86e2db5c" y="144.701239"/>
     <use style="fill:#f0e442;stroke:#f0e442;" x="175.883609" xlink:href="#m6c86e2db5c" y="143.435735"/>
     <use style="fill:#f0e442;stroke:#f0e442;" x="185.45365" xlink:href="#m6c86e2db5c" y="140.362741"/>
     <use style="fill:#f0e442;stroke:#f0e442;" x="194.599701" xlink:href="#m6c86e2db5c" y="138.046784"/>
     <use style="fill:#f0e442;stroke:#f0e442;" x="203.321764" xlink:href="#m6c86e2db5c" y="131.536059"/>
     <use style="fill:#f0e442;stroke:#f0e442;" x="211.619837" xlink:href="#m6c86e2db5c" y="130.899316"/>
     <use style="fill:#f0e442;stroke:#f0e442;" x="219.493921" xlink:href="#m6c86e2db5c" y="134.771354"/>
     <use style="fill:#f0e442;stroke:#f0e442;" x="226.944016" xlink:href="#m6c86e2db5c" y="133.413042"/>
     <use style="fill:#f0e442;stroke:#f0e442;" x="233.970122" xlink:href="#m6c86e2db5c" y="135.791978"/>
     <use style="fill:#f0e442;stroke:#f0e442;" x="240.572239" xlink:href="#m6c86e2db5c" y="135.83914"/>
     <use style="fill:#f0e442;stroke:#f0e442;" x="246.750366" xlink:href="#m6c86e2db5c" y="137.661846"/>
     <use style="fill:#f0e442;stroke:#f0e442;" x="252.504505" xlink:href="#m6c86e2db5c" y="140.798274"/>
     <use style="fill:#f0e442;stroke:#f0e442;" x="257.834654" xlink:href="#m6c86e2db5c" y="146.887972"/>
     <use style="fill:#f0e442;stroke:#f0e442;" x="262.740814" xlink:href="#m6c86e2db5c" y="155.803484"/>
     <use style="fill:#f0e442;stroke:#f0e442;" x="267.222985" xlink:href="#m6c86e2db5c" y="165.97201"/>
     <use style="fill:#f0e442;stroke:#f0e442;" x="271.281167" xlink:href="#m6c86e2db5c" y="172.950719"/>
     <use style="fill:#f0e442;stroke:#f0e442;" x="274.79422" xlink:href="#m6c86e2db5c" y="170.486044"/>
     <use style="fill:#f0e442;stroke:#f0e442;" x="278.246703" xlink:href="#m6c86e2db5c" y="172.206331"/>
     <use style="fill:#f0e442;stroke:#f0e442;" x="281.578046" xlink:href="#m6c86e2db5c" y="179.641918"/>
     <use style="fill:#f0e442;stroke:#f0e442;" x="284.84882" xlink:href="#m6c86e2db5c" y="189.55414"/>
     <use style="fill:#f0e442;stroke:#f0e442;" x="287.998453" xlink:href="#m6c86e2db5c" y="191.35579"/>
     <use style="fill:#f0e442;stroke:#f0e442;" x="291.087517" xlink:href="#m6c86e2db5c" y="200.677652"/>
     <use style="fill:#f0e442;stroke:#f0e442;" x="294.055441" xlink:href="#m6c86e2db5c" y="199.653518"/>
     <use style="fill:#f0e442;stroke:#f0e442;" x="296.962795" xlink:href="#m6c86e2db5c" y="207.483381"/>
     <use style="fill:#f0e442;stroke:#f0e442;" x="299.749009" xlink:href="#m6c86e2db5c" y="214.592187"/>
     <use style="fill:#f0e442;stroke:#f0e442;" x="302.474654" xlink:href="#m6c86e2db5c" y="219.30826"/>
     <use style="fill:#f0e442;stroke:#f0e442;" x="305.200299" xlink:href="#m6c86e2db5c" y="219.895407"/>
     <use style="fill:#f0e442;stroke:#f0e442;" x="307.925943" xlink:href="#m6c86e2db5c" y="216.159597"/>
     <use style="fill:#f0e442;stroke:#f0e442;" x="310.651588" xlink:href="#m6c86e2db5c" y="223.914387"/>
     <use style="fill:#f0e442;stroke:#f0e442;" x="313.377232" xlink:href="#m6c86e2db5c" y="223.064314"/>
     <use style="fill:#f0e442;stroke:#f0e442;" x="316.102877" xlink:href="#m6c86e2db5c" y="212.517841"/>
     <use style="fill:#f0e442;stroke:#f0e442;" x="318.828521" xlink:href="#m6c86e2db5c" y="212.734517"/>
     <use style="fill:#f0e442;stroke:#f0e442;" x="321.554166" xlink:href="#m6c86e2db5c" y="214.659446"/>
     <use style="fill:#f0e442;stroke:#f0e442;" x="324.27981" xlink:href="#m6c86e2db5c" y="214.736487"/>
     <use style="fill:#f0e442;stroke:#f0e442;" x="327.005455" xlink:href="#m6c86e2db5c" y="213.157569"/>
     <use style="fill:#f0e442;stroke:#f0e442;" x="329.731099" xlink:href="#m6c86e2db5c" y="212.04295"/>
     <use style="fill:#f0e442;stroke:#f0e442;" x="332.577883" xlink:href="#m6c86e2db5c" y="217.2167"/>
     <use style="fill:#f0e442;stroke:#f0e442;" x="335.485237" xlink:href="#m6c86e2db5c" y="221.011334"/>
    </g>
   </g>
   <g id="PathCollection_5">
    <defs>
     <path d="M 0 1.5 
C 0.397805 1.5 0.77937 1.341951 1.06066 1.06066 
C 1.341951 0.77937 1.5 0.397805 1.5 0 
C 1.5 -0.397805 1.341951 -0.77937 1.06066 -1.06066 
C 0.77937 -1.341951 0.397805 -1.5 0 -1.5 
C -0.397805 -1.5 -0.77937 -1.341951 -1.06066 -1.06066 
C -1.341951 -0.77937 -1.5 -0.397805 -1.5 0 
C -1.5 0.397805 -1.341951 0.77937 -1.06066 1.06066 
C -0.77937 1.341951 -0.397805 1.5 0 1.5 
z
" id="mcf4b4f5395" style="stroke:#cc79a7;"/>
    </defs>
    <g clip-path="url(#p2d1a788913)">
     <use style="fill:#cc79a7;stroke:#cc79a7;" x="155.47156" xlink:href="#mcf4b4f5395" y="230.523841"/>
     <use style="fill:#cc79a7;stroke:#cc79a7;" x="165.889579" xlink:href="#mcf4b4f5395" y="224.909429"/>
     <use style="fill:#cc79a7;stroke:#cc79a7;" x="175.883609" xlink:href="#mcf4b4f5395" y="219.210653"/>
     <use style="fill:#cc79a7;stroke:#cc79a7;" x="185.45365" xlink:href="#mcf4b4f5395" y="214.452254"/>
     <use style="fill:#cc79a7;stroke:#cc79a7;" x="194.599701" xlink:href="#mcf4b4f5395" y="208.824367"/>
     <use style="fill:#cc79a7;stroke:#cc79a7;" x="203.321764" xlink:href="#mcf4b4f5395" y="203.045337"/>
     <use style="fill:#cc79a7;stroke:#cc79a7;" x="211.619837" xlink:href="#mcf4b4f5395" y="198.058232"/>
     <use style="fill:#cc79a7;stroke:#cc79a7;" x="219.493921" xlink:href="#mcf4b4f5395" y="192.128456"/>
     <use style="fill:#cc79a7;stroke:#cc79a7;" x="226.944016" xlink:href="#mcf4b4f5395" y="188.097065"/>
     <use style="fill:#cc79a7;stroke:#cc79a7;" x="233.970122" xlink:href="#mcf4b4f5395" y="183.900277"/>
     <use style="fill:#cc79a7;stroke:#cc79a7;" x="240.572239" xlink:href="#mcf4b4f5395" y="182.432682"/>
     <use style="fill:#cc79a7;stroke:#cc79a7;" x="246.750366" xlink:href="#mcf4b4f5395" y="180.826679"/>
     <use style="fill:#cc79a7;stroke:#cc79a7;" x="252.504505" xlink:href="#mcf4b4f5395" y="178.789473"/>
     <use style="fill:#cc79a7;stroke:#cc79a7;" x="257.834654" xlink:href="#mcf4b4f5395" y="178.004504"/>
     <use style="fill:#cc79a7;stroke:#cc79a7;" x="262.740814" xlink:href="#mcf4b4f5395" y="177.44493"/>
     <use style="fill:#cc79a7;stroke:#cc79a7;" x="267.222985" xlink:href="#mcf4b4f5395" y="176.517758"/>
     <use style="fill:#cc79a7;stroke:#cc79a7;" x="271.281167" xlink:href="#mcf4b4f5395" y="175.530951"/>
     <use style="fill:#cc79a7;stroke:#cc79a7;" x="274.79422" xlink:href="#mcf4b4f5395" y="175.05852"/>
     <use style="fill:#cc79a7;stroke:#cc79a7;" x="278.246703" xlink:href="#mcf4b4f5395" y="174.574548"/>
     <use style="fill:#cc79a7;stroke:#cc79a7;" x="281.578046" xlink:href="#mcf4b4f5395" y="174.26586"/>
     <use style="fill:#cc79a7;stroke:#cc79a7;" x="284.84882" xlink:href="#mcf4b4f5395" y="173.962706"/>
     <use style="fill:#cc79a7;stroke:#cc79a7;" x="287.998453" xlink:href="#mcf4b4f5395" y="173.535259"/>
     <use style="fill:#cc79a7;stroke:#cc79a7;" x="291.087517" xlink:href="#mcf4b4f5395" y="173.168106"/>
     <use style="fill:#cc79a7;stroke:#cc79a7;" x="294.055441" xlink:href="#mcf4b4f5395" y="172.68326"/>
     <use style="fill:#cc79a7;stroke:#cc79a7;" x="296.962795" xlink:href="#mcf4b4f5395" y="172.272584"/>
     <use style="fill:#cc79a7;stroke:#cc79a7;" x="299.749009" xlink:href="#mcf4b4f5395" y="172.062099"/>
     <use style="fill:#cc79a7;stroke:#cc79a7;" x="302.474654" xlink:href="#mcf4b4f5395" y="171.859747"/>
     <use style="fill:#cc79a7;stroke:#cc79a7;" x="305.200299" xlink:href="#mcf4b4f5395" y="171.813256"/>
     <use style="fill:#cc79a7;stroke:#cc79a7;" x="307.925943" xlink:href="#mcf4b4f5395" y="171.732649"/>
     <use style="fill:#cc79a7;stroke:#cc79a7;" x="310.651588" xlink:href="#mcf4b4f5395" y="171.797288"/>
     <use style="fill:#cc79a7;stroke:#cc79a7;" x="313.377232" xlink:href="#mcf4b4f5395" y="171.733401"/>
     <use style="fill:#cc79a7;stroke:#cc79a7;" x="316.102877" xlink:href="#mcf4b4f5395" y="171.648046"/>
     <use style="fill:#cc79a7;stroke:#cc79a7;" x="318.828521" xlink:href="#mcf4b4f5395" y="171.55593"/>
     <use style="fill:#cc79a7;stroke:#cc79a7;" x="321.554166" xlink:href="#mcf4b4f5395" y="171.526136"/>
     <use style="fill:#cc79a7;stroke:#cc79a7;" x="324.27981" xlink:href="#mcf4b4f5395" y="171.514507"/>
     <use style="fill:#cc79a7;stroke:#cc79a7;" x="327.005455" xlink:href="#mcf4b4f5395" y="171.51183"/>
     <use style="fill:#cc79a7;stroke:#cc79a7;" x="329.731099" xlink:href="#mcf4b4f5395" y="171.487791"/>
     <use style="fill:#cc79a7;stroke:#cc79a7;" x="332.577883" xlink:href="#mcf4b4f5395" y="171.43716"/>
     <use style="fill:#cc79a7;stroke:#cc79a7;" x="335.485237" xlink:href="#mcf4b4f5395" y="171.419501"/>
    </g>
   </g>
   <g id="matplotlib.axis_3">
    <g id="ytick_7">
     <g id="line2d_15">
      <defs>
       <path d="M 0 0 
L 3.5 0 
" id="m4de2fc407b" style="stroke:#000000;stroke-width:0.8;"/>
      </defs>
      <g>
       <use style="stroke:#000000;stroke-width:0.8;" x="383.82" xlink:href="#m4de2fc407b" y="292.534199"/>
      </g>
     </g>
     <g id="text_15">
      <!-- 0.0 -->
      <g transform="translate(390.82 296.006074)scale(0.1 -0.1)">
       <use xlink:href="#TimesNewRomanPSMT-48"/>
       <use x="50" xlink:href="#TimesNewRomanPSMT-46"/>
       <use x="75" xlink:href="#TimesNewRomanPSMT-48"/>
      </g>
     </g>
    </g>
    <g id="ytick_8">
     <g id="line2d_16">
      <g>
       <use style="stroke:#000000;stroke-width:0.8;" x="383.82" xlink:href="#m4de2fc407b" y="243.818391"/>
      </g>
     </g>
     <g id="text_16">
      <!-- 0.2 -->
      <g transform="translate(390.82 247.290266)scale(0.1 -0.1)">
       <use xlink:href="#TimesNewRomanPSMT-48"/>
       <use x="50" xlink:href="#TimesNewRomanPSMT-46"/>
       <use x="75" xlink:href="#TimesNewRomanPSMT-50"/>
      </g>
     </g>
    </g>
    <g id="ytick_9">
     <g id="line2d_17">
      <g>
       <use style="stroke:#000000;stroke-width:0.8;" x="383.82" xlink:href="#m4de2fc407b" y="195.102582"/>
      </g>
     </g>
     <g id="text_17">
      <!-- 0.4 -->
      <g transform="translate(390.82 198.574457)scale(0.1 -0.1)">
       <use xlink:href="#TimesNewRomanPSMT-48"/>
       <use x="50" xlink:href="#TimesNewRomanPSMT-46"/>
       <use x="75" xlink:href="#TimesNewRomanPSMT-52"/>
      </g>
     </g>
    </g>
    <g id="ytick_10">
     <g id="line2d_18">
      <g>
       <use style="stroke:#000000;stroke-width:0.8;" x="383.82" xlink:href="#m4de2fc407b" y="146.386774"/>
      </g>
     </g>
     <g id="text_18">
      <!-- 0.6 -->
      <g transform="translate(390.82 149.858649)scale(0.1 -0.1)">
       <use xlink:href="#TimesNewRomanPSMT-48"/>
       <use x="50" xlink:href="#TimesNewRomanPSMT-46"/>
       <use x="75" xlink:href="#TimesNewRomanPSMT-54"/>
      </g>
     </g>
    </g>
    <g id="ytick_11">
     <g id="line2d_19">
      <g>
       <use style="stroke:#000000;stroke-width:0.8;" x="383.82" xlink:href="#m4de2fc407b" y="97.670966"/>
      </g>
     </g>
     <g id="text_19">
      <!-- 0.8 -->
      <g transform="translate(390.82 101.142841)scale(0.1 -0.1)">
       <use xlink:href="#TimesNewRomanPSMT-48"/>
       <use x="50" xlink:href="#TimesNewRomanPSMT-46"/>
       <use x="75" xlink:href="#TimesNewRomanPSMT-56"/>
      </g>
     </g>
    </g>
    <g id="ytick_12">
     <g id="line2d_20">
      <g>
       <use style="stroke:#000000;stroke-width:0.8;" x="383.82" xlink:href="#m4de2fc407b" y="48.955158"/>
      </g>
     </g>
     <g id="text_20">
      <!-- 1.0 -->
      <g transform="translate(390.82 52.427033)scale(0.1 -0.1)">
       <use xlink:href="#TimesNewRomanPSMT-49"/>
       <use x="50" xlink:href="#TimesNewRomanPSMT-46"/>
       <use x="75" xlink:href="#TimesNewRomanPSMT-48"/>
      </g>
     </g>
    </g>
    <g id="text_21">
     <!-- HR distance | Fidelity -->
     <g transform="translate(415.6525 223.874805)rotate(-90)scale(0.12 -0.12)">
      <defs>
       <path d="M 20.5625 35.5 
L 51.3125 35.5 
L 51.3125 54.4375 
Q 51.3125 59.515625 50.6875 61.140625 
Q 50.203125 62.359375 48.640625 63.234375 
Q 46.53125 64.40625 44.1875 64.40625 
L 41.84375 64.40625 
L 41.84375 66.21875 
L 70.171875 66.21875 
L 70.171875 64.40625 
L 67.828125 64.40625 
Q 65.484375 64.40625 63.375 63.28125 
Q 61.8125 62.5 61.25 60.90625 
Q 60.6875 59.328125 60.6875 54.4375 
L 60.6875 11.71875 
Q 60.6875 6.6875 61.328125 5.078125 
Q 61.8125 3.859375 63.328125 2.984375 
Q 65.484375 1.8125 67.828125 1.8125 
L 70.171875 1.8125 
L 70.171875 0 
L 41.84375 0 
L 41.84375 1.8125 
L 44.1875 1.8125 
Q 48.25 1.8125 50.09375 4.203125 
Q 51.3125 5.765625 51.3125 11.71875 
L 51.3125 31.890625 
L 20.5625 31.890625 
L 20.5625 11.71875 
Q 20.5625 6.6875 21.1875 5.078125 
Q 21.6875 3.859375 23.25 2.984375 
Q 25.34375 1.8125 27.6875 1.8125 
L 30.078125 1.8125 
L 30.078125 0 
L 1.703125 0 
L 1.703125 1.8125 
L 4.046875 1.8125 
Q 8.15625 1.8125 10.015625 4.203125 
Q 11.1875 5.765625 11.1875 11.71875 
L 11.1875 54.4375 
Q 11.1875 59.515625 10.546875 61.140625 
Q 10.0625 62.359375 8.546875 63.234375 
Q 6.390625 64.40625 4.046875 64.40625 
L 1.703125 64.40625 
L 1.703125 66.21875 
L 30.078125 66.21875 
L 30.078125 64.40625 
L 27.6875 64.40625 
Q 25.34375 64.40625 23.25 63.28125 
Q 21.734375 62.5 21.140625 60.90625 
Q 20.5625 59.328125 20.5625 54.4375 
z
" id="TimesNewRomanPSMT-72"/>
       <path d="M 67.578125 0 
L 49.90625 0 
L 27.484375 30.953125 
Q 25 30.859375 23.4375 30.859375 
Q 22.796875 30.859375 22.0625 30.875 
Q 21.34375 30.90625 20.5625 30.953125 
L 20.5625 11.71875 
Q 20.5625 5.46875 21.921875 3.953125 
Q 23.78125 1.8125 27.484375 1.8125 
L 30.078125 1.8125 
L 30.078125 0 
L 1.703125 0 
L 1.703125 1.8125 
L 4.203125 1.8125 
Q 8.40625 1.8125 10.203125 4.546875 
Q 11.234375 6.0625 11.234375 11.71875 
L 11.234375 54.5 
Q 11.234375 60.75 9.859375 62.25 
Q 7.953125 64.40625 4.203125 64.40625 
L 1.703125 64.40625 
L 1.703125 66.21875 
L 25.828125 66.21875 
Q 36.375 66.21875 41.375 64.671875 
Q 46.390625 63.140625 49.875 59.015625 
Q 53.375 54.890625 53.375 49.171875 
Q 53.375 43.0625 49.390625 38.5625 
Q 45.40625 34.078125 37.0625 32.234375 
L 50.734375 13.234375 
Q 55.421875 6.6875 58.78125 4.53125 
Q 62.15625 2.390625 67.578125 1.8125 
z
M 20.5625 34.03125 
Q 21.484375 34.03125 22.171875 34 
Q 22.859375 33.984375 23.296875 33.984375 
Q 32.765625 33.984375 37.578125 38.078125 
Q 42.390625 42.1875 42.390625 48.53125 
Q 42.390625 54.734375 38.5 58.609375 
Q 34.625 62.5 28.21875 62.5 
Q 25.390625 62.5 20.5625 61.578125 
z
" id="TimesNewRomanPSMT-82"/>
       <path id="TimesNewRomanPSMT-32"/>
       <path d="M 34.71875 5.03125 
Q 31.453125 1.609375 28.328125 0.109375 
Q 25.203125 -1.375 21.578125 -1.375 
Q 14.265625 -1.375 8.796875 4.75 
Q 3.328125 10.890625 3.328125 20.515625 
Q 3.328125 30.125 9.375 38.109375 
Q 15.4375 46.09375 24.953125 46.09375 
Q 30.859375 46.09375 34.71875 42.328125 
L 34.71875 50.59375 
Q 34.71875 58.25 34.34375 60 
Q 33.984375 61.765625 33.203125 62.390625 
Q 32.421875 63.03125 31.25 63.03125 
Q 29.984375 63.03125 27.875 62.25 
L 27.25 63.96875 
L 40.578125 69.4375 
L 42.78125 69.4375 
L 42.78125 17.71875 
Q 42.78125 9.859375 43.140625 8.125 
Q 43.5 6.390625 44.3125 5.703125 
Q 45.125 5.03125 46.1875 5.03125 
Q 47.515625 5.03125 49.703125 5.859375 
L 50.25 4.15625 
L 36.96875 -1.375 
L 34.71875 -1.375 
z
M 34.71875 8.453125 
L 34.71875 31.5 
Q 34.421875 34.8125 32.953125 37.546875 
Q 31.5 40.28125 29.078125 41.671875 
Q 26.65625 43.0625 24.359375 43.0625 
Q 20.0625 43.0625 16.703125 39.203125 
Q 12.25 34.125 12.25 24.359375 
Q 12.25 14.5 16.546875 9.25 
Q 20.84375 4 26.125 4 
Q 30.5625 4 34.71875 8.453125 
z
" id="TimesNewRomanPSMT-100"/>
       <path d="M 14.5 69.4375 
Q 16.546875 69.4375 17.984375 67.984375 
Q 19.4375 66.546875 19.4375 64.5 
Q 19.4375 62.453125 17.984375 60.984375 
Q 16.546875 59.515625 14.5 59.515625 
Q 12.453125 59.515625 10.984375 60.984375 
Q 9.515625 62.453125 9.515625 64.5 
Q 9.515625 66.546875 10.953125 67.984375 
Q 12.40625 69.4375 14.5 69.4375 
z
M 18.5625 46.046875 
L 18.5625 10.109375 
Q 18.5625 5.90625 19.171875 4.515625 
Q 19.78125 3.125 20.96875 2.4375 
Q 22.171875 1.765625 25.34375 1.765625 
L 25.34375 0 
L 3.609375 0 
L 3.609375 1.765625 
Q 6.890625 1.765625 8 2.390625 
Q 9.125 3.03125 9.78125 4.484375 
Q 10.453125 5.953125 10.453125 10.109375 
L 10.453125 27.34375 
Q 10.453125 34.625 10.015625 36.765625 
Q 9.671875 38.328125 8.9375 38.9375 
Q 8.203125 39.546875 6.9375 39.546875 
Q 5.5625 39.546875 3.609375 38.8125 
L 2.9375 40.578125 
L 16.40625 46.046875 
z
" id="TimesNewRomanPSMT-105"/>
       <path d="M 32.03125 46.046875 
L 32.03125 30.8125 
L 30.421875 30.8125 
Q 28.5625 37.984375 25.65625 40.578125 
Q 22.75 43.171875 18.265625 43.171875 
Q 14.84375 43.171875 12.734375 41.359375 
Q 10.640625 39.546875 10.640625 37.359375 
Q 10.640625 34.625 12.203125 32.671875 
Q 13.71875 30.671875 18.359375 28.421875 
L 25.484375 24.953125 
Q 35.40625 20.125 35.40625 12.203125 
Q 35.40625 6.109375 30.78125 2.359375 
Q 26.171875 -1.375 20.453125 -1.375 
Q 16.359375 -1.375 11.078125 0.09375 
Q 9.46875 0.59375 8.453125 0.59375 
Q 7.328125 0.59375 6.6875 -0.6875 
L 5.078125 -0.6875 
L 5.078125 15.28125 
L 6.6875 15.28125 
Q 8.0625 8.453125 11.90625 4.984375 
Q 15.765625 1.515625 20.5625 1.515625 
Q 23.921875 1.515625 26.046875 3.484375 
Q 28.171875 5.46875 28.171875 8.25 
Q 28.171875 11.625 25.796875 13.921875 
Q 23.4375 16.21875 16.359375 19.734375 
Q 9.28125 23.25 7.078125 26.078125 
Q 4.890625 28.859375 4.890625 33.109375 
Q 4.890625 38.625 8.671875 42.328125 
Q 12.453125 46.046875 18.453125 46.046875 
Q 21.09375 46.046875 24.859375 44.921875 
Q 27.34375 44.1875 28.171875 44.1875 
Q 28.953125 44.1875 29.390625 44.53125 
Q 29.828125 44.875 30.421875 46.046875 
z
" id="TimesNewRomanPSMT-115"/>
       <path d="M 16.109375 59.421875 
L 16.109375 44.734375 
L 26.5625 44.734375 
L 26.5625 41.3125 
L 16.109375 41.3125 
L 16.109375 12.3125 
Q 16.109375 7.953125 17.359375 6.4375 
Q 18.609375 4.9375 20.5625 4.9375 
Q 22.171875 4.9375 23.6875 5.9375 
Q 25.203125 6.9375 26.03125 8.890625 
L 27.9375 8.890625 
Q 26.21875 4.109375 23.09375 1.6875 
Q 19.96875 -0.734375 16.65625 -0.734375 
Q 14.40625 -0.734375 12.25 0.515625 
Q 10.109375 1.765625 9.078125 4.078125 
Q 8.0625 6.390625 8.0625 11.234375 
L 8.0625 41.3125 
L 0.984375 41.3125 
L 0.984375 42.921875 
Q 3.65625 44 6.46875 46.5625 
Q 9.28125 49.125 11.46875 52.640625 
Q 12.59375 54.5 14.59375 59.421875 
z
" id="TimesNewRomanPSMT-116"/>
       <path d="M 28.46875 6.453125 
Q 21.578125 1.125 19.828125 0.296875 
Q 17.1875 -0.921875 14.203125 -0.921875 
Q 9.578125 -0.921875 6.5625 2.25 
Q 3.5625 5.421875 3.5625 10.59375 
Q 3.5625 13.875 5.03125 16.265625 
Q 7.03125 19.578125 11.984375 22.5 
Q 16.9375 25.4375 28.46875 29.640625 
L 28.46875 31.390625 
Q 28.46875 38.09375 26.34375 40.578125 
Q 24.21875 43.0625 20.171875 43.0625 
Q 17.09375 43.0625 15.28125 41.40625 
Q 13.421875 39.75 13.421875 37.59375 
L 13.53125 34.765625 
Q 13.53125 32.515625 12.375 31.296875 
Q 11.234375 30.078125 9.375 30.078125 
Q 7.5625 30.078125 6.421875 31.34375 
Q 5.28125 32.625 5.28125 34.8125 
Q 5.28125 39.015625 9.578125 42.53125 
Q 13.875 46.046875 21.625 46.046875 
Q 27.59375 46.046875 31.390625 44.046875 
Q 34.28125 42.53125 35.640625 39.3125 
Q 36.53125 37.203125 36.53125 30.71875 
L 36.53125 15.53125 
Q 36.53125 9.125 36.765625 7.6875 
Q 37.015625 6.25 37.578125 5.765625 
Q 38.140625 5.28125 38.875 5.28125 
Q 39.65625 5.28125 40.234375 5.609375 
Q 41.265625 6.25 44.1875 9.1875 
L 44.1875 6.453125 
Q 38.71875 -0.875 33.734375 -0.875 
Q 31.34375 -0.875 29.921875 0.78125 
Q 28.515625 2.4375 28.46875 6.453125 
z
M 28.46875 9.625 
L 28.46875 26.65625 
Q 21.09375 23.734375 18.953125 22.515625 
Q 15.09375 20.359375 13.421875 18.015625 
Q 11.765625 15.671875 11.765625 12.890625 
Q 11.765625 9.375 13.859375 7.046875 
Q 15.96875 4.734375 18.703125 4.734375 
Q 22.40625 4.734375 28.46875 9.625 
z
" id="TimesNewRomanPSMT-97"/>
       <path d="M 16.15625 36.578125 
Q 24.03125 46.046875 31.15625 46.046875 
Q 34.8125 46.046875 37.453125 44.21875 
Q 40.09375 42.390625 41.65625 38.1875 
Q 42.71875 35.25 42.71875 29.203125 
L 42.71875 10.109375 
Q 42.71875 5.859375 43.40625 4.34375 
Q 43.953125 3.125 45.140625 2.4375 
Q 46.34375 1.765625 49.5625 1.765625 
L 49.5625 0 
L 27.4375 0 
L 27.4375 1.765625 
L 28.375 1.765625 
Q 31.5 1.765625 32.734375 2.703125 
Q 33.984375 3.65625 34.46875 5.515625 
Q 34.671875 6.25 34.671875 10.109375 
L 34.671875 28.421875 
Q 34.671875 34.515625 33.078125 37.28125 
Q 31.5 40.046875 27.734375 40.046875 
Q 21.921875 40.046875 16.15625 33.6875 
L 16.15625 10.109375 
Q 16.15625 5.5625 16.703125 4.5 
Q 17.390625 3.078125 18.578125 2.421875 
Q 19.78125 1.765625 23.4375 1.765625 
L 23.4375 0 
L 1.3125 0 
L 1.3125 1.765625 
L 2.296875 1.765625 
Q 5.71875 1.765625 6.90625 3.484375 
Q 8.109375 5.21875 8.109375 10.109375 
L 8.109375 26.703125 
Q 8.109375 34.765625 7.734375 36.515625 
Q 7.375 38.28125 6.609375 38.90625 
Q 5.859375 39.546875 4.59375 39.546875 
Q 3.21875 39.546875 1.3125 38.8125 
L 0.59375 40.578125 
L 14.0625 46.046875 
L 16.15625 46.046875 
z
" id="TimesNewRomanPSMT-110"/>
       <path d="M 41.109375 17 
Q 39.3125 8.15625 34.03125 3.390625 
Q 28.765625 -1.375 22.359375 -1.375 
Q 14.75 -1.375 9.078125 5.015625 
Q 3.421875 11.421875 3.421875 22.3125 
Q 3.421875 32.859375 9.6875 39.453125 
Q 15.96875 46.046875 24.75 46.046875 
Q 31.34375 46.046875 35.59375 42.546875 
Q 39.84375 39.0625 39.84375 35.296875 
Q 39.84375 33.453125 38.640625 32.296875 
Q 37.453125 31.15625 35.296875 31.15625 
Q 32.421875 31.15625 30.953125 33.015625 
Q 30.125 34.03125 29.859375 36.90625 
Q 29.59375 39.796875 27.875 41.3125 
Q 26.171875 42.78125 23.140625 42.78125 
Q 18.265625 42.78125 15.28125 39.15625 
Q 11.328125 34.375 11.328125 26.515625 
Q 11.328125 18.5 15.25 12.375 
Q 19.1875 6.25 25.875 6.25 
Q 30.671875 6.25 34.46875 9.515625 
Q 37.15625 11.765625 39.703125 17.671875 
z
" id="TimesNewRomanPSMT-99"/>
       <path d="M 10.640625 27.875 
Q 10.59375 17.921875 15.484375 12.25 
Q 20.359375 6.59375 26.953125 6.59375 
Q 31.34375 6.59375 34.59375 9 
Q 37.84375 11.421875 40.046875 17.28125 
L 41.546875 16.3125 
Q 40.53125 9.625 35.59375 4.125 
Q 30.671875 -1.375 23.25 -1.375 
Q 15.1875 -1.375 9.453125 4.90625 
Q 3.71875 11.1875 3.71875 21.78125 
Q 3.71875 33.25 9.59375 39.671875 
Q 15.484375 46.09375 24.359375 46.09375 
Q 31.890625 46.09375 36.71875 41.140625 
Q 41.546875 36.1875 41.546875 27.875 
z
M 10.640625 30.71875 
L 31.34375 30.71875 
Q 31.109375 35.015625 30.328125 36.765625 
Q 29.109375 39.5 26.6875 41.0625 
Q 24.265625 42.625 21.625 42.625 
Q 17.578125 42.625 14.375 39.46875 
Q 11.1875 36.328125 10.640625 30.71875 
z
" id="TimesNewRomanPSMT-101"/>
       <path d="M 11.921875 69.4375 
L 11.921875 -21.578125 
L 7.859375 -21.578125 
L 7.859375 69.4375 
z
" id="TimesNewRomanPSMT-124"/>
       <path d="M 20.453125 62.59375 
L 20.453125 36.578125 
L 32.515625 36.578125 
Q 36.671875 36.578125 38.59375 38.40625 
Q 40.53125 40.234375 41.15625 45.65625 
L 42.96875 45.65625 
L 42.96875 23.25 
L 41.15625 23.25 
Q 41.109375 27.09375 40.15625 28.90625 
Q 39.203125 30.71875 37.515625 31.609375 
Q 35.84375 32.515625 32.515625 32.515625 
L 20.453125 32.515625 
L 20.453125 11.71875 
Q 20.453125 6.6875 21.09375 5.078125 
Q 21.578125 3.859375 23.140625 2.984375 
Q 25.296875 1.8125 27.640625 1.8125 
L 30.03125 1.8125 
L 30.03125 0 
L 1.609375 0 
L 1.609375 1.8125 
L 3.953125 1.8125 
Q 8.0625 1.8125 9.90625 4.203125 
Q 11.078125 5.765625 11.078125 11.71875 
L 11.078125 54.5 
Q 11.078125 59.515625 10.453125 61.140625 
Q 9.96875 62.359375 8.453125 63.234375 
Q 6.34375 64.40625 3.953125 64.40625 
L 1.609375 64.40625 
L 1.609375 66.21875 
L 50.875 66.21875 
L 51.515625 51.65625 
L 49.8125 51.65625 
Q 48.53125 56.296875 46.84375 58.46875 
Q 45.171875 60.640625 42.703125 61.609375 
Q 40.234375 62.59375 35.0625 62.59375 
z
" id="TimesNewRomanPSMT-70"/>
       <path d="M 18.5 69.4375 
L 18.5 10.109375 
Q 18.5 5.90625 19.109375 4.53125 
Q 19.734375 3.171875 21 2.46875 
Q 22.265625 1.765625 25.734375 1.765625 
L 25.734375 0 
L 3.8125 0 
L 3.8125 1.765625 
Q 6.890625 1.765625 8 2.390625 
Q 9.125 3.03125 9.765625 4.484375 
Q 10.40625 5.953125 10.40625 10.109375 
L 10.40625 50.734375 
Q 10.40625 58.296875 10.0625 60.03125 
Q 9.71875 61.765625 8.953125 62.390625 
Q 8.203125 63.03125 7.03125 63.03125 
Q 5.765625 63.03125 3.8125 62.25 
L 2.984375 63.96875 
L 16.3125 69.4375 
z
" id="TimesNewRomanPSMT-108"/>
       <path d="M 0.59375 44.734375 
L 21.4375 44.734375 
L 21.4375 42.921875 
L 20.40625 42.921875 
Q 18.21875 42.921875 17.109375 41.96875 
Q 16.015625 41.015625 16.015625 39.59375 
Q 16.015625 37.703125 17.625 34.328125 
L 28.515625 11.765625 
L 38.53125 36.46875 
Q 39.359375 38.484375 39.359375 40.4375 
Q 39.359375 41.3125 39.015625 41.75 
Q 38.625 42.28125 37.796875 42.59375 
Q 36.96875 42.921875 34.859375 42.921875 
L 34.859375 44.734375 
L 49.421875 44.734375 
L 49.421875 42.921875 
Q 47.609375 42.71875 46.625 42.125 
Q 45.65625 41.546875 44.484375 39.9375 
Q 44.046875 39.265625 42.828125 36.1875 
L 24.609375 -8.453125 
Q 21.96875 -14.9375 17.6875 -18.25 
Q 13.421875 -21.578125 9.46875 -21.578125 
Q 6.59375 -21.578125 4.734375 -19.921875 
Q 2.875 -18.265625 2.875 -16.109375 
Q 2.875 -14.0625 4.21875 -12.8125 
Q 5.5625 -11.578125 7.90625 -11.578125 
Q 9.515625 -11.578125 12.3125 -12.640625 
Q 14.265625 -13.375 14.75 -13.375 
Q 16.21875 -13.375 17.9375 -11.859375 
Q 19.671875 -10.359375 21.4375 -6 
L 24.609375 1.765625 
L 8.546875 35.5 
Q 7.8125 37.015625 6.203125 39.265625 
Q 4.984375 40.96875 4.203125 41.546875 
Q 3.078125 42.328125 0.59375 42.921875 
z
" id="TimesNewRomanPSMT-121"/>
      </defs>
      <use xlink:href="#TimesNewRomanPSMT-72"/>
      <use x="72.216797" xlink:href="#TimesNewRomanPSMT-82"/>
      <use x="138.916016" xlink:href="#TimesNewRomanPSMT-32"/>
      <use x="163.916016" xlink:href="#TimesNewRomanPSMT-100"/>
      <use x="213.916016" xlink:href="#TimesNewRomanPSMT-105"/>
      <use x="241.699219" xlink:href="#TimesNewRomanPSMT-115"/>
      <use x="280.615234" xlink:href="#TimesNewRomanPSMT-116"/>
      <use x="308.398438" xlink:href="#TimesNewRomanPSMT-97"/>
      <use x="352.783203" xlink:href="#TimesNewRomanPSMT-110"/>
      <use x="402.783203" xlink:href="#TimesNewRomanPSMT-99"/>
      <use x="447.167969" xlink:href="#TimesNewRomanPSMT-101"/>
      <use x="491.552734" xlink:href="#TimesNewRomanPSMT-32"/>
      <use x="516.552734" xlink:href="#TimesNewRomanPSMT-124"/>
      <use x="536.572266" xlink:href="#TimesNewRomanPSMT-32"/>
      <use x="561.572266" xlink:href="#TimesNewRomanPSMT-70"/>
      <use x="617.1875" xlink:href="#TimesNewRomanPSMT-105"/>
      <use x="644.970703" xlink:href="#TimesNewRomanPSMT-100"/>
      <use x="694.970703" xlink:href="#TimesNewRomanPSMT-101"/>
      <use x="739.355469" xlink:href="#TimesNewRomanPSMT-108"/>
      <use x="767.138672" xlink:href="#TimesNewRomanPSMT-105"/>
      <use x="794.921875" xlink:href="#TimesNewRomanPSMT-116"/>
      <use x="822.705078" xlink:href="#TimesNewRomanPSMT-121"/>
     </g>
    </g>
   </g>
   <g id="patch_7">
    <path d="M 26.7 304.56768 
L 26.7 38.45568 
" style="fill:none;stroke:#000000;stroke-linecap:square;stroke-linejoin:miter;stroke-width:0.8;"/>
   </g>
   <g id="patch_8">
    <path d="M 383.82 304.56768 
L 383.82 38.45568 
" style="fill:none;stroke:#000000;stroke-linecap:square;stroke-linejoin:miter;stroke-width:0.8;"/>
   </g>
   <g id="patch_9">
    <path d="M 26.7 304.56768 
L 383.82 304.56768 
" style="fill:none;stroke:#000000;stroke-linecap:square;stroke-linejoin:miter;stroke-width:0.8;"/>
   </g>
   <g id="patch_10">
    <path d="M 26.7 38.45568 
L 383.82 38.45568 
" style="fill:none;stroke:#000000;stroke-linecap:square;stroke-linejoin:miter;stroke-width:0.8;"/>
   </g>
   <g id="legend_1">
    <g id="patch_11">
     <path d="M 424.265625 61.723125 
L 553.98 61.723125 
Q 556.38 61.723125 556.38 59.323125 
L 556.38 9.6 
Q 556.38 7.2 553.98 7.2 
L 424.265625 7.2 
Q 421.865625 7.2 421.865625 9.6 
L 421.865625 59.323125 
Q 421.865625 61.723125 424.265625 61.723125 
z
" style="fill:#ffffff;opacity:0.8;stroke:#cccccc;stroke-linejoin:miter;"/>
    </g>
    <g id="PathCollection_6">
     <g>
      <use style="fill:#d55e00;stroke:#d55e00;" x="438.665625" xlink:href="#mc396a7e580" y="17.25"/>
     </g>
    </g>
    <g id="text_22">
     <!-- HR distance (dep) -->
     <g transform="translate(460.265625 20.4)scale(0.12 -0.12)">
      <defs>
       <path d="M 31.0625 -19.578125 
L 31.0625 -21.390625 
Q 23.6875 -17.671875 18.75 -12.703125 
Q 11.71875 -5.609375 7.90625 4 
Q 4.109375 13.625 4.109375 23.96875 
Q 4.109375 39.109375 11.578125 51.578125 
Q 19.046875 64.0625 31.0625 69.4375 
L 31.0625 67.390625 
Q 25.046875 64.0625 21.1875 58.296875 
Q 17.328125 52.546875 15.421875 43.703125 
Q 13.53125 34.859375 13.53125 25.25 
Q 13.53125 14.796875 15.140625 6.25 
Q 16.40625 -0.484375 18.203125 -4.5625 
Q 20.015625 -8.640625 23.0625 -12.390625 
Q 26.125 -16.15625 31.0625 -19.578125 
z
" id="TimesNewRomanPSMT-40"/>
       <path d="M -0.09375 40.28125 
L 13.671875 45.84375 
L 15.53125 45.84375 
L 15.53125 35.40625 
Q 19 41.3125 22.484375 43.671875 
Q 25.984375 46.046875 29.828125 46.046875 
Q 36.578125 46.046875 41.0625 40.765625 
Q 46.578125 34.328125 46.578125 23.96875 
Q 46.578125 12.40625 39.9375 4.828125 
Q 34.46875 -1.375 26.171875 -1.375 
Q 22.5625 -1.375 19.921875 -0.34375 
Q 17.96875 0.390625 15.53125 2.59375 
L 15.53125 -11.03125 
Q 15.53125 -15.625 16.09375 -16.859375 
Q 16.65625 -18.109375 18.046875 -18.84375 
Q 19.4375 -19.578125 23.09375 -19.578125 
L 23.09375 -21.390625 
L -0.34375 -21.390625 
L -0.34375 -19.578125 
L 0.875 -19.578125 
Q 3.5625 -19.625 5.46875 -18.5625 
Q 6.390625 -18.015625 6.90625 -16.8125 
Q 7.421875 -15.625 7.421875 -10.75 
L 7.421875 31.546875 
Q 7.421875 35.890625 7.03125 37.0625 
Q 6.640625 38.234375 5.78125 38.8125 
Q 4.9375 39.40625 3.46875 39.40625 
Q 2.296875 39.40625 0.484375 38.71875 
z
M 15.53125 32.515625 
L 15.53125 15.828125 
Q 15.53125 10.40625 15.96875 8.6875 
Q 16.65625 5.859375 19.3125 3.703125 
Q 21.96875 1.5625 26.03125 1.5625 
Q 30.90625 1.5625 33.9375 5.375 
Q 37.890625 10.359375 37.890625 19.390625 
Q 37.890625 29.640625 33.40625 35.15625 
Q 30.28125 38.96875 25.984375 38.96875 
Q 23.640625 38.96875 21.34375 37.796875 
Q 19.578125 36.921875 15.53125 32.515625 
z
" id="TimesNewRomanPSMT-112"/>
       <path d="M 2.25 67.390625 
L 2.25 69.4375 
Q 9.671875 65.765625 14.59375 60.796875 
Q 21.578125 53.65625 25.390625 44.0625 
Q 29.203125 34.46875 29.203125 24.078125 
Q 29.203125 8.9375 21.75 -3.53125 
Q 14.3125 -16.015625 2.25 -21.390625 
L 2.25 -19.578125 
Q 8.25 -16.21875 12.125 -10.46875 
Q 16.015625 -4.734375 17.890625 4.125 
Q 19.78125 12.984375 19.78125 22.609375 
Q 19.78125 33.015625 18.171875 41.609375 
Q 16.9375 48.34375 15.109375 52.390625 
Q 13.28125 56.453125 10.25 60.203125 
Q 7.234375 63.96875 2.25 67.390625 
z
" id="TimesNewRomanPSMT-41"/>
      </defs>
      <use xlink:href="#TimesNewRomanPSMT-72"/>
      <use x="72.216797" xlink:href="#TimesNewRomanPSMT-82"/>
      <use x="138.916016" xlink:href="#TimesNewRomanPSMT-32"/>
      <use x="163.916016" xlink:href="#TimesNewRomanPSMT-100"/>
      <use x="213.916016" xlink:href="#TimesNewRomanPSMT-105"/>
      <use x="241.699219" xlink:href="#TimesNewRomanPSMT-115"/>
      <use x="280.615234" xlink:href="#TimesNewRomanPSMT-116"/>
      <use x="308.398438" xlink:href="#TimesNewRomanPSMT-97"/>
      <use x="352.783203" xlink:href="#TimesNewRomanPSMT-110"/>
      <use x="402.783203" xlink:href="#TimesNewRomanPSMT-99"/>
      <use x="447.167969" xlink:href="#TimesNewRomanPSMT-101"/>
      <use x="491.552734" xlink:href="#TimesNewRomanPSMT-32"/>
      <use x="516.552734" xlink:href="#TimesNewRomanPSMT-40"/>
      <use x="549.853516" xlink:href="#TimesNewRomanPSMT-100"/>
      <use x="599.853516" xlink:href="#TimesNewRomanPSMT-101"/>
      <use x="644.238281" xlink:href="#TimesNewRomanPSMT-112"/>
      <use x="694.238281" xlink:href="#TimesNewRomanPSMT-41"/>
     </g>
    </g>
    <g id="PathCollection_7">
     <g>
      <use style="fill:#f0e442;stroke:#f0e442;" x="438.665625" xlink:href="#m6c86e2db5c" y="34.216875"/>
     </g>
    </g>
    <g id="text_23">
     <!-- HR distance (ionq) -->
     <g transform="translate(460.265625 37.366875)scale(0.12 -0.12)">
      <defs>
       <path d="M 25 46.046875 
Q 35.15625 46.046875 41.3125 38.328125 
Q 46.53125 31.734375 46.53125 23.1875 
Q 46.53125 17.1875 43.640625 11.03125 
Q 40.765625 4.890625 35.71875 1.75 
Q 30.671875 -1.375 24.46875 -1.375 
Q 14.359375 -1.375 8.40625 6.6875 
Q 3.375 13.484375 3.375 21.921875 
Q 3.375 28.078125 6.421875 34.15625 
Q 9.46875 40.234375 14.453125 43.140625 
Q 19.4375 46.046875 25 46.046875 
z
M 23.484375 42.875 
Q 20.90625 42.875 18.28125 41.328125 
Q 15.671875 39.796875 14.0625 35.9375 
Q 12.453125 32.078125 12.453125 26.03125 
Q 12.453125 16.265625 16.328125 9.171875 
Q 20.21875 2.09375 26.5625 2.09375 
Q 31.296875 2.09375 34.375 6 
Q 37.453125 9.90625 37.453125 19.4375 
Q 37.453125 31.34375 32.328125 38.1875 
Q 28.859375 42.875 23.484375 42.875 
z
" id="TimesNewRomanPSMT-111"/>
       <path d="M 42.71875 46.046875 
L 42.71875 -11.46875 
Q 42.71875 -15.765625 43.296875 -16.984375 
Q 43.890625 -18.21875 45.140625 -18.890625 
Q 46.390625 -19.578125 50 -19.578125 
L 50 -21.390625 
L 27.4375 -21.390625 
L 27.4375 -19.578125 
L 28.375 -19.578125 
Q 31.109375 -19.578125 32.515625 -18.796875 
Q 33.5 -18.265625 34.078125 -16.875 
Q 34.671875 -15.484375 34.671875 -11.46875 
L 34.671875 7.765625 
Q 30.21875 2.484375 26.890625 0.546875 
Q 23.578125 -1.375 20.015625 -1.375 
Q 13.53125 -1.375 8.421875 4.53125 
Q 3.328125 10.453125 3.328125 20.359375 
Q 3.328125 31.734375 10.0625 38.890625 
Q 16.796875 46.046875 26.3125 46.046875 
Q 29.109375 46.046875 31.453125 45.265625 
Q 33.796875 44.484375 35.640625 42.921875 
Q 38.484375 44.28125 41.0625 46.046875 
z
M 34.671875 10.84375 
L 34.671875 31.84375 
Q 34.671875 35.5 33.71875 37.59375 
Q 32.765625 39.703125 30.3125 41.15625 
Q 27.875 42.625 24.8125 42.625 
Q 19.34375 42.625 15.4375 37.984375 
Q 11.53125 33.34375 11.53125 23.921875 
Q 11.53125 14.890625 15.5 10.203125 
Q 19.484375 5.515625 25.09375 5.515625 
Q 27.984375 5.515625 30.21875 6.765625 
Q 32.46875 8.015625 34.671875 10.84375 
z
" id="TimesNewRomanPSMT-113"/>
      </defs>
      <use xlink:href="#TimesNewRomanPSMT-72"/>
      <use x="72.216797" xlink:href="#TimesNewRomanPSMT-82"/>
      <use x="138.916016" xlink:href="#TimesNewRomanPSMT-32"/>
      <use x="163.916016" xlink:href="#TimesNewRomanPSMT-100"/>
      <use x="213.916016" xlink:href="#TimesNewRomanPSMT-105"/>
      <use x="241.699219" xlink:href="#TimesNewRomanPSMT-115"/>
      <use x="280.615234" xlink:href="#TimesNewRomanPSMT-116"/>
      <use x="308.398438" xlink:href="#TimesNewRomanPSMT-97"/>
      <use x="352.783203" xlink:href="#TimesNewRomanPSMT-110"/>
      <use x="402.783203" xlink:href="#TimesNewRomanPSMT-99"/>
      <use x="447.167969" xlink:href="#TimesNewRomanPSMT-101"/>
      <use x="491.552734" xlink:href="#TimesNewRomanPSMT-32"/>
      <use x="516.552734" xlink:href="#TimesNewRomanPSMT-40"/>
      <use x="549.853516" xlink:href="#TimesNewRomanPSMT-105"/>
      <use x="577.636719" xlink:href="#TimesNewRomanPSMT-111"/>
      <use x="627.636719" xlink:href="#TimesNewRomanPSMT-110"/>
      <use x="677.636719" xlink:href="#TimesNewRomanPSMT-113"/>
      <use x="727.636719" xlink:href="#TimesNewRomanPSMT-41"/>
     </g>
    </g>
    <g id="PathCollection_8">
     <g>
      <use style="fill:#cc79a7;stroke:#cc79a7;" x="438.665625" xlink:href="#mcf4b4f5395" y="51.18375"/>
     </g>
    </g>
    <g id="text_24">
     <!-- Fidelity (dep) -->
     <g transform="translate(460.265625 54.33375)scale(0.12 -0.12)">
      <use xlink:href="#TimesNewRomanPSMT-70"/>
      <use x="55.615234" xlink:href="#TimesNewRomanPSMT-105"/>
      <use x="83.398438" xlink:href="#TimesNewRomanPSMT-100"/>
      <use x="133.398438" xlink:href="#TimesNewRomanPSMT-101"/>
      <use x="177.783203" xlink:href="#TimesNewRomanPSMT-108"/>
      <use x="205.566406" xlink:href="#TimesNewRomanPSMT-105"/>
      <use x="233.349609" xlink:href="#TimesNewRomanPSMT-116"/>
      <use x="261.132812" xlink:href="#TimesNewRomanPSMT-121"/>
      <use x="311.132812" xlink:href="#TimesNewRomanPSMT-32"/>
      <use x="336.132812" xlink:href="#TimesNewRomanPSMT-40"/>
      <use x="369.433594" xlink:href="#TimesNewRomanPSMT-100"/>
      <use x="419.433594" xlink:href="#TimesNewRomanPSMT-101"/>
      <use x="463.818359" xlink:href="#TimesNewRomanPSMT-112"/>
      <use x="513.818359" xlink:href="#TimesNewRomanPSMT-41"/>
     </g>
    </g>
   </g>
  </g>
 </g>
 <defs>
  <clipPath id="p2d1a788913">
   <rect height="266.112" width="357.12" x="26.7" y="38.45568"/>
  </clipPath>
 </defs>
</svg>
